<svg width="368" height="266" viewBox="0 0 368 266" fill="none" xmlns="http://www.w3.org/2000/svg">
<path d="M316.508 258.936H276.871V264.43H316.508V258.936Z" fill="#FDA16E"/>
<path d="M306.697 258.936H305.519V264.43H306.697V258.936Z" fill="white"/>
<path d="M310.229 258.936H309.051V264.43H310.229V258.936Z" fill="white"/>
<path d="M313.761 258.936H312.583V264.43H313.761V258.936Z" fill="white"/>
<path d="M312.583 252.147H272.946V257.641H312.583V252.147Z" fill="#FDA16E"/>
<path d="M302.38 252.147H301.202V257.641H302.38V252.147Z" fill="white"/>
<path d="M305.912 252.147H304.734V257.641H305.912V252.147Z" fill="white"/>
<path d="M309.444 252.147H308.266V257.641H309.444V252.147Z" fill="white"/>
<path d="M320.432 245.357H280.795V250.852H320.432V245.357Z" fill="#FDA16E"/>
<path d="M311.014 245.357H309.836V250.852H311.014V245.357Z" fill="white"/>
<path d="M314.546 245.357H313.368V250.852H314.546V245.357Z" fill="white"/>
<path d="M318.078 245.357H316.9V250.852H318.078V245.357Z" fill="white"/>
<path d="M312.583 231.779H272.946V237.273H312.583V231.779Z" fill="#FDA16E"/>
<path d="M302.38 231.779H301.202V237.273H302.38V231.779Z" fill="white"/>
<path d="M305.912 231.779H304.734V237.273H305.912V231.779Z" fill="white"/>
<path d="M309.444 231.779H308.266V237.273H309.444V231.779Z" fill="white"/>
<path d="M320.432 224.989H280.795V230.484H320.432V224.989Z" fill="#FDA16E"/>
<path d="M311.014 224.989H309.836V230.484H311.014V224.989Z" fill="white"/>
<path d="M314.546 224.989H313.368V230.484H314.546V224.989Z" fill="white"/>
<path d="M318.078 224.989H316.9V230.484H318.078V224.989Z" fill="white"/>
<path d="M316.508 238.568H276.871V244.062H316.508V238.568Z" fill="#FDA16E"/>
<path d="M306.697 238.568H305.519V244.062H306.697V238.568Z" fill="white"/>
<path d="M310.229 238.568H309.051V244.062H310.229V238.568Z" fill="white"/>
<path d="M313.761 238.568H312.583V244.062H313.761V238.568Z" fill="white"/>
<path d="M218.082 266L217.258 265.176C224.126 258.347 235.428 248.968 242.767 245.083L243.317 246.142C236.056 249.949 224.911 259.211 218.082 266Z" fill="#212326"/>
<path d="M246.77 234.879C245.475 235.821 242.924 237.705 241.551 241.197C240.687 243.474 240.648 245.514 240.726 246.731C246.417 248.379 254.972 250.263 265.529 250.459C274.006 250.616 278.519 250.695 283.66 248.261C296.258 242.296 303.322 225.617 299.868 221.811C299.24 221.104 298.338 220.947 297.749 220.869C291.862 220.123 282.993 223.616 276.007 227.03C270.16 229.895 263.763 231.386 257.288 231.582C253.834 231.779 249.949 232.564 246.77 234.879Z" fill="#212326"/>
<path d="M98.19 227.462C101.133 231.229 102.389 236.449 103.253 240.099C103.881 242.689 104.194 244.886 104.351 246.417C102.35 248.85 92.4603 260.506 79.0387 259.603C73.4659 259.25 69.7769 256.895 63.4586 252.735C47.0543 241.982 32.7693 224.401 36.0658 219.848C36.6937 218.985 37.7533 218.828 38.4597 218.71C66.6766 214.315 85.9457 220.594 85.9457 220.594C93.1667 222.949 96.0316 224.715 98.19 227.462Z" fill="#212326"/>
<path d="M119.775 258.112C114.555 253.206 108.59 249.086 102.075 245.868L102.585 244.808C109.218 248.065 115.261 252.264 120.559 257.248L119.775 258.112Z" fill="#212326"/>
<path d="M85.5532 195.909C86.3773 198.421 86.1026 201.403 85.8672 203.483C85.7102 204.975 85.4747 206.191 85.2785 207.015C83.7872 207.918 76.4485 212.196 69.5414 209.252C66.6765 208.036 65.1853 206.113 62.6344 202.777C56.002 194.104 51.7636 182.213 54.3537 180.447C54.8247 180.133 55.4133 180.211 55.845 180.29C71.4251 183.194 80.3729 190.062 80.3729 190.062C83.7479 192.573 84.9253 194.065 85.5532 195.909Z" fill="#212326"/>
<path d="M90.969 216.081C89.1637 212.549 86.8091 209.331 83.9835 206.427L84.8076 205.603C87.7117 208.585 90.1056 211.921 91.9894 215.531L90.969 216.081Z" fill="#212326"/>
<path d="M173.265 255.914C231.417 255.914 278.558 215.028 278.558 164.592C278.558 114.156 231.417 73.2697 173.265 73.2697C115.113 73.2697 67.9716 114.156 67.9716 164.592C67.9716 215.028 115.113 255.914 173.265 255.914Z" fill="#4653C5"/>
<path d="M241.354 112.2L259.014 76.4485C259.917 74.6433 257.641 72.1708 255.051 72.1316C241.668 71.8569 209.762 73.3089 200.422 92.1856C227.972 105.803 241.354 112.2 241.354 112.2Z" fill="#4653C5"/>
<path d="M246.457 133.167C248.729 131.289 249.049 127.924 247.171 125.652C245.293 123.38 241.928 123.061 239.656 124.939C237.384 126.817 237.065 130.181 238.943 132.453C240.821 134.725 244.185 135.045 246.457 133.167Z" fill="#212326"/>
<path d="M59.2986 160.079C57.2971 160.079 55.2957 159.726 53.3334 159.019C46.3871 156.468 41.7563 149.797 41.874 142.379V142.262C41.8348 136.454 45.5238 131.195 50.9788 129.233C56.5123 127.231 62.6737 128.997 66.3627 133.549C67.0298 134.374 66.9121 135.629 66.0879 136.297C65.2638 136.964 64.008 136.846 63.3408 136.022C60.7114 132.765 56.2768 131.509 52.3523 132.961C48.3886 134.374 45.7985 138.141 45.8377 142.34V142.419V142.536C45.7985 148.266 49.3305 153.407 54.707 155.369C60.1228 157.332 66.1664 155.683 69.8162 151.21C70.4833 150.385 71.7392 150.228 72.5633 150.935C73.3874 151.602 73.5444 152.858 72.838 153.682C69.463 157.803 64.4397 160.079 59.2986 160.079Z" fill="#4653C5"/>
<path d="M159.922 231.072C199.434 231.072 231.465 203.276 231.465 168.987C231.465 134.699 199.434 106.902 159.922 106.902C120.41 106.902 88.3789 134.699 88.3789 168.987C88.3789 203.276 120.41 231.072 159.922 231.072Z" fill="#212326"/>
<path d="M78.0968 203.64L114.712 264.469H142.222L144.813 238.843L78.0968 203.64Z" fill="#4653C5"/>
<path d="M242.649 224.989L226.638 264.469H202.895L195.556 237.783L242.649 224.989Z" fill="#4653C5"/>
<path d="M271.612 131.901C271.612 131.901 280.56 150.856 297.788 153.015C300.614 153.368 302.694 155.801 302.694 158.666V172.323C302.694 173.226 302.497 174.089 302.105 174.874C298.573 181.938 279.225 217.297 237.744 236.606L271.612 131.901Z" fill="#4653C5"/>
<path d="M54.4323 50.6648L43.1298 65.4992L33.8681 61.4963L54.4323 50.6648Z" fill="#4653C5"/>
<path d="M54.4323 50.6648L43.1299 65.4993L49.409 73.3482L54.4323 50.6648Z" fill="#D1D1DF"/>
<path d="M136.14 90.1841C142.183 87.437 155.958 82.4922 174.442 84.0227C176.954 80.059 178.367 75.3497 178.367 70.3263C178.367 56.0806 166.829 44.5426 152.583 44.5426C138.337 44.5426 126.799 56.0806 126.799 70.3263C126.799 78.3322 130.41 85.4355 136.14 90.1841Z" fill="#FDA16E"/>
<path d="M143.635 87.751C137.081 84.3759 133 77.7043 133 70.3263C133 59.5341 141.791 50.7433 152.583 50.7433C163.375 50.7433 172.166 59.5341 172.166 70.3263C172.166 75.5459 170.125 80.4515 166.436 84.1797L165.063 82.8061C168.399 79.4703 170.204 75.0749 170.204 70.3656C170.204 60.6722 162.316 52.7448 152.583 52.7448C142.85 52.7448 134.962 60.6329 134.962 70.3656C134.962 76.9979 138.612 83.0024 144.538 86.0242L143.635 87.751Z" fill="white"/>
<path d="M132.333 93.3237L131.195 91.7147C131.862 91.2437 147.952 80.0983 181.153 83.1593L180.957 85.1216C148.58 82.139 132.49 93.206 132.333 93.3237Z" fill="white"/>
<path d="M111.023 2.78635H108.708V8.59455C108.708 9.41869 109.375 10.0466 110.16 10.0466H111.023V2.78635V2.78635Z" fill="#212326"/>
<path d="M95.5214 55.9628L99.0534 93.6769L91.5969 129.036H94.5795C94.5795 129.036 106 104.822 109.649 96.6595C110.748 94.2263 111.298 92.5781 111.337 89.9094L111.572 73.1127H114.398L119.068 92.9313L123.581 128.997H126.564L130.959 95.1682C131.155 93.6769 131.155 92.1856 130.999 90.6943L128.251 55.9628H95.5214V55.9628Z" fill="#AF93FF"/>
<path d="M100.231 132.372H97.4051L94.6187 131.469V129.036L97.4051 130.371L100.231 131.038V132.372Z" fill="white"/>
<path d="M93.7553 132.372H91.6361V129.036H94.6187V131.469L93.7553 132.372Z" fill="white"/>
<path d="M132.215 132.372H129.389L126.603 131.469V129.036L129.389 130.371L132.215 131.038V132.372Z" fill="white"/>
<path d="M125.74 132.372H123.621V129.036H126.603V131.469L125.74 132.372Z" fill="white"/>
<path d="M114.084 12.2836H111.533C110.395 12.2836 109.492 11.3809 109.492 10.2429V2.74713H117.734V8.63382C117.734 10.6353 116.086 12.2836 114.084 12.2836Z" fill="#FCD59B"/>
<path d="M67.5792 39.4016L64.9106 37.9495C64.2042 37.5571 63.694 36.9292 63.4978 36.1443L62.8699 33.7111C62.8306 33.5541 63.0269 33.4364 63.1446 33.5541L65.3423 35.6341C65.5778 35.8696 65.8917 35.9088 66.2057 35.8303C66.8728 35.5949 67.6185 35.7126 68.1679 36.1443L69.0705 36.8115L67.5792 39.4016Z" fill="#FCD59B"/>
<path d="M93.5199 63.851H110.317L111.886 56.9832L114.32 63.851H130.292L125.661 22.134C125.347 19.4653 123.11 17.4246 120.402 17.4246H103.37C100.662 17.4246 98.4255 19.4653 98.1115 22.134L96.0708 40.6182L93.5199 63.851Z" fill="#212326"/>
<path d="M115.889 17.4246L115.34 27.8244L109.139 17.4246H115.889Z" fill="white"/>
<path d="M111.141 10.0074L115.026 9.14401L115.889 17.4246L113.927 18.1703L109.139 17.4246L111.141 10.0074Z" fill="#FCD59B"/>
<path d="M91.2437 46.3087L106.353 25.5875L98.8571 20.054L86.1811 41.2069L68.9528 35.6734L67.226 40.0688L85.3178 48.1532C87.4762 49.1735 90.0271 48.3494 91.2437 46.3087Z" fill="#212326"/>
<path d="M148.305 41.7955L151.327 42.3057C152.112 42.4234 152.819 42.8943 153.25 43.5615L154.624 45.6415C154.702 45.7592 154.585 45.9554 154.428 45.8769L151.68 44.6211C151.406 44.5034 151.052 44.5426 150.817 44.7388C150.268 45.1705 149.522 45.2882 148.855 45.092L147.756 44.7388L148.305 41.7955Z" fill="#FCD59B"/>
<path d="M125.544 48.5849L117.381 25.5875L125.465 21.1921L131.116 40.8537L148.305 41.7955L147.756 44.7389L125.544 48.5849Z" fill="#212326"/>
<path d="M113.966 2.47241C113.966 3.84597 115.065 4.94482 116.439 4.94482C117.812 4.94482 118.911 3.84597 118.911 2.47241C118.911 1.09885 117.812 0 116.439 0C115.065 0 113.966 1.09885 113.966 2.47241Z" fill="#212326"/>
<path d="M108.668 4.94482H116.203V1.09885H110.591C109.532 1.09885 108.668 1.96223 108.668 3.02184V4.94482V4.94482Z" fill="#212326"/>
<path d="M109.846 8.71233C110.279 8.71233 110.631 8.36092 110.631 7.92744C110.631 7.49396 110.279 7.14255 109.846 7.14255C109.412 7.14255 109.061 7.49396 109.061 7.92744C109.061 8.36092 109.412 8.71233 109.846 8.71233Z" fill="#FCD59B"/>
<path d="M129.86 137.631H128.448V264.469H129.86V137.631Z" fill="#D1D1DF"/>
<path d="M89.6739 137.631H88.2611V255.365H89.6739V137.631Z" fill="#D1D1DF"/>
<path d="M122.914 155.566H80.8831V156.978H122.914V155.566Z" fill="#FDA16E"/>
<path d="M114.712 179.466H72.5632V180.878H114.712V179.466Z" fill="#FDA16E"/>
<path d="M106.353 203.405H63.0268V204.818H106.353V203.405Z" fill="#FDA16E"/>
<path d="M97.8368 227.305H55.0994V228.718H97.8368V227.305Z" fill="#FDA16E"/>
<path d="M41.7562 264.94L40.4612 264.469L88.732 132.804H131.548L131.234 133.706L86.5343 264.94L85.2 264.469L129.586 134.217H89.7131L41.7562 264.94Z" fill="#FDA16E"/>
<path d="M131.43 137.631H85.2392C84.6506 137.631 84.1796 137.16 84.1796 136.571V133.392C84.1796 132.804 84.6506 132.333 85.2392 132.333H131.43C132.019 132.333 132.49 132.804 132.49 133.392V136.571C132.49 137.16 132.019 137.631 131.43 137.631Z" fill="#FDA16E"/>
<path d="M213.726 101.447L222.635 92.3034L221.811 90.4196C221.536 89.7917 220.79 89.517 220.162 89.7917L200.815 98.347C200.187 98.6217 199.912 99.3674 200.187 99.9953L201.011 101.879L213.726 101.447Z" fill="white"/>
<path d="M214.903 104.037L202.149 104.469L206.505 114.359C206.78 114.987 207.526 115.261 208.153 114.987L227.501 106.431C228.129 106.157 228.404 105.411 228.129 104.783L223.773 94.8935L214.903 104.037Z" fill="white"/>
<path d="M156.076 205.289L159.333 223.773C159.372 224.008 159.372 224.244 159.372 224.479L157.803 261.408H160.55L166.672 224.911C166.829 224.126 166.907 223.302 166.947 222.517L168.673 205.838L156.076 205.289Z" fill="#FCD59B"/>
<path d="M147.834 224.872L140.967 261.408H143.714L155.291 224.989C155.566 224.126 155.762 223.223 155.801 222.321L156.508 206.073L143.989 205.72L147.834 223.459C147.913 223.969 147.913 224.401 147.834 224.872Z" fill="#FCD59B"/>
<path d="M158.823 143.164H155.919C154.977 143.164 154.231 142.419 154.231 141.477V134.374H161.845V140.143C161.845 141.83 160.51 143.164 158.823 143.164Z" fill="#FCD59B"/>
<path d="M159.372 140.26L155.801 141.084L153.917 147.952H160.157L159.372 140.26Z" fill="#FCD59B"/>
<path d="M175.188 212.941L168.124 176.444C168.124 162.747 171.46 165.652 170.596 158.941C170.596 158.941 168.634 150.778 166.279 149.247C164.906 148.345 163.297 147.913 161.649 147.913H152.23C150.896 147.913 149.208 148.345 147.717 149.051C145.637 150.032 144.577 152.426 145.244 154.624C146.853 159.961 149.993 170.95 149.757 174.756L138.063 212.902H175.188V212.941Z" fill="#AF93FF"/>
<path d="M160.157 136.65H154.231L156.939 131.038H160.157C161.688 131.038 162.944 132.294 162.944 133.824C162.944 135.394 161.688 136.65 160.157 136.65Z" fill="#4653C5"/>
<path d="M154.31 140.81H151.288V136.1C151.288 133.314 153.564 131.038 156.351 131.038H156.939V138.18C156.939 139.632 155.762 140.81 154.31 140.81Z" fill="#4653C5"/>
<path d="M157.057 138.769C157.057 139.358 156.586 139.829 155.997 139.829C155.409 139.829 154.938 139.358 154.938 138.769C154.938 138.18 155.409 137.709 155.997 137.709C156.547 137.709 157.057 138.18 157.057 138.769Z" fill="#FCD59B"/>
<path d="M198.813 132.608L183.429 148.659L164.788 155.448L161.688 147.952L179.976 143.047L196.145 131.705L198.813 132.608Z" fill="#AF93FF"/>
<path d="M198.813 132.608L199.951 130.606C200.305 129.978 200.422 129.193 200.187 128.526L199.52 126.328C199.48 126.171 199.284 126.171 199.245 126.328L198.539 128.997C198.46 129.272 198.225 129.507 197.95 129.546C197.322 129.664 196.773 130.135 196.537 130.724L196.145 131.705L198.813 132.608Z" fill="#FCD59B"/>
<path d="M148.894 264.469H146.343L142.576 263.253L143.753 261.369L148.894 263.842V264.469Z" fill="#212326"/>
<path d="M142.929 264.469H140.967V261.369H143.753L142.576 263.253L142.929 264.469Z" fill="#212326"/>
<path d="M165.73 264.469H163.14L159.372 263.253L160.55 261.369L165.73 263.842V264.469Z" fill="#212326"/>
<path d="M159.726 264.469H157.763V261.369H160.55L159.372 263.253L159.726 264.469Z" fill="#212326"/>
<path d="M170.322 164.396L178.955 165.024C178.367 166.122 178.406 167.849 179.073 168.909L183.508 176.012C183.783 176.483 183.508 177.072 182.998 177.15L180.682 177.543C180.368 177.582 180.054 177.464 179.897 177.189L175.227 169.694C174.796 169.066 170.322 164.396 170.322 164.396Z" fill="white"/>
<path d="M200.226 146.186L204.621 171.499L181.349 168.045L179.466 157.292L200.226 146.186Z" fill="#FDA16E"/>
<path d="M172.009 159.843C170.047 160.197 168.752 162.041 169.105 163.964L169.341 165.22C169.694 167.182 171.538 168.477 173.461 168.124L177.464 167.418L181.389 168.006L179.544 157.253L176.051 159.137L172.009 159.843Z" fill="white"/>
<path d="M217.282 155.774L205.211 157.819L205.407 158.98L217.479 156.935L217.282 155.774Z" fill="#D1D1DF"/>
<path d="M210.607 148.055L203.381 152.851L204.032 153.832L211.259 149.036L210.607 148.055Z" fill="#D1D1DF"/>
<path d="M205.619 163.145L205.357 164.293L214.961 166.482L215.223 165.334L205.619 163.145Z" fill="#D1D1DF"/>
<path d="M175.07 175.306L177.346 175.502C178.092 175.58 178.798 175.306 179.348 174.835L181.035 173.304C181.153 173.186 181.075 173.03 180.918 173.03L178.171 173.54C177.896 173.579 177.582 173.461 177.425 173.265C177.032 172.755 176.405 172.441 175.777 172.48L174.717 172.519L175.07 175.306Z" fill="#FCD59B"/>
<path d="M152.583 176.954L175.07 175.306L174.717 172.519L154.702 170.282L151.523 152.74L145.127 153.76L147.874 173.069C147.874 175.463 150.111 177.346 152.583 176.954Z" fill="#AF93FF"/>
<path d="M148.345 169.027H148.933C151.837 169.027 154.231 166.672 154.231 163.729V138.259H153.643C150.739 138.259 148.345 140.613 148.345 143.557V169.027Z" fill="#4653C5"/>
<path d="M350.14 140.143H345.47V135.512H351.318V138.965C351.279 139.632 350.768 140.143 350.14 140.143Z" fill="#FDA16E"/>
<path d="M360.58 182.801L358.774 220.476L360.187 261.055H357.126L351.475 220.476L349.866 192.456H346.059L341.467 222.007L348.767 261.055H345.706L334.443 223.616C334.011 222.674 333.775 221.654 333.775 220.633V182.801H360.58Z" fill="#212326"/>
<path d="M340.015 264.469H342.88L345.745 263.528V261.055L342.88 262.429L340.015 263.096V264.469Z" fill="#AF93FF"/>
<path d="M346.608 264.469H348.806V261.055H345.745V263.528L346.608 264.469Z" fill="#AF93FF"/>
<path d="M351.514 264.469H354.34L357.204 263.528V261.055L354.34 262.429L351.514 263.096V264.469Z" fill="#AF93FF"/>
<path d="M358.107 264.469H360.266V261.055H357.204V263.528L358.107 264.469Z" fill="#AF93FF"/>
<path d="M305.362 140.574L303.636 138.847C303.008 138.259 302.694 137.395 302.733 136.571L302.811 133.903C302.811 133.746 303.047 133.667 303.125 133.824L304.774 136.65C304.931 136.924 305.245 137.121 305.598 137.081C306.343 137.042 307.089 137.356 307.56 137.984L308.306 138.965L305.362 140.574Z" fill="#FCD59B"/>
<path d="M362.856 186.687H332.206V157.292C332.206 152.701 335.934 149.012 340.486 149.012H354.536C359.127 149.012 362.816 152.74 362.816 157.292V186.687H362.856Z" fill="#AF93FF"/>
<path d="M345.353 143.871H347.982C349.12 143.871 350.062 142.929 350.062 141.791V134.138H341.624V140.143C341.624 142.222 343.273 143.871 345.353 143.871Z" fill="#FCD59B"/>
<path d="M348.335 141.555L344.371 140.653L343.508 149.13L345.549 153.486L350.376 149.13L348.335 141.555Z" fill="#FCD59B"/>
<path d="M315.409 158.98L305.362 140.574L308.266 138.926L320.079 153.957L338.603 149.208L337.229 160.55L318.745 160.864C317.371 160.864 316.115 160.157 315.409 158.98Z" fill="#AF93FF"/>
<path d="M348.296 134.766H344.293C342.292 134.766 340.643 133.118 340.643 131.116L348.178 131.548L348.296 134.766Z" fill="#FDA16E"/>
<path d="M346.844 136.179H341.821C340.369 136.179 339.191 135.001 339.191 133.549V132.529H344.999C346.02 132.529 346.844 133.353 346.844 134.374V136.179Z" fill="#FDA16E"/>
<path d="M351.278 136.179H345.431V131.548H348.374C349.983 131.548 351.278 132.843 351.278 134.452V136.179Z" fill="#FDA16E"/>
<path d="M350.572 138.612C350.572 139.122 350.14 139.554 349.63 139.554C349.12 139.554 348.688 139.122 348.688 138.612C348.688 138.102 349.12 137.67 349.63 137.67C350.14 137.631 350.572 138.063 350.572 138.612Z" fill="#FCD59B"/>
<path d="M341.271 192.691L339.23 194.025C338.524 194.496 337.621 194.653 336.797 194.457L334.168 193.829C334.011 193.79 333.972 193.554 334.168 193.515L337.268 192.495C337.582 192.377 337.818 192.102 337.857 191.788C337.975 191.043 338.446 190.376 339.152 190.062L340.251 189.512L341.271 192.691Z" fill="#FCD59B"/>
<path d="M362.581 155.212L351.396 157.606L359.677 175.306L340.251 189.512L341.271 192.691L364.543 180.447C366.505 179.387 367.526 177.111 366.937 174.953L362.581 155.212Z" fill="#AF93FF"/>
<path d="M43.9147 151.17L26.6471 161.845L6.6716 157.96L7.53499 150.817L26.2939 155.252L42.5019 148.698L43.9147 151.17Z" fill="#FDA16E"/>
<path d="M15.5409 225.421H9.02626L0 261.369H2.82561L15.5409 225.421Z" fill="#FCD59B"/>
<path d="M17.8955 225.421L17.1499 261.369H19.9363L23.9392 225.421H17.8955Z" fill="#FCD59B"/>
<path d="M8.08444 264.469H5.45504L1.64832 263.214L2.82565 261.291L8.08444 263.842V264.469Z" fill="#212326"/>
<path d="M2.00148 264.469H0V261.291H2.82561L1.64827 263.214L2.00148 264.469Z" fill="#212326"/>
<path d="M25.2343 264.469H22.6049L18.7589 263.214L19.9755 261.291L25.2343 263.842V264.469Z" fill="#212326"/>
<path d="M19.1514 264.469H17.1499V261.291H19.9755L18.7589 263.214L19.1514 264.469Z" fill="#212326"/>
<path d="M23.9392 225.421L24.4101 209.135H15.9725L17.8955 225.421H23.9392Z" fill="#FCD59B"/>
<path d="M15.5409 225.421L15.6586 209.135H7.53497L9.02626 225.421H15.5409Z" fill="#FCD59B"/>
<path d="M17.8563 140.849H15.4624C14.4027 140.849 13.5394 139.986 13.5394 138.926V131.862H21.3098V137.395C21.3098 139.279 19.7793 140.849 17.8563 140.849Z" fill="#FCD59B"/>
<path d="M18.7589 137.866L15.1092 138.69L13.2254 145.676H19.5438L18.7589 137.866Z" fill="#FCD59B"/>
<path d="M24.7633 220.908H16.4042L13.5001 213.962L11.1847 220.908H8.00589L2.55089 187.589C2.1192 184.96 2.00147 182.33 2.23694 179.662L4.55237 151.17C4.67011 149.875 5.18028 148.619 6.08291 147.638C7.221 146.382 8.83003 145.676 10.5175 145.676H20.9566C22.1732 145.676 23.3505 146.029 24.3709 146.736C25.9799 147.834 27.0003 149.64 27.0395 151.602L27.6674 170.479L30.0614 182.958L24.7633 220.908Z" fill="#FDA16E"/>
<path d="M19.5438 128.487H13.5002C10.2036 128.487 7.49576 131.155 7.49576 134.491V155.448C10.7923 155.448 13.5002 152.779 13.5002 149.443V134.177H19.5438C21.1136 134.177 22.4087 132.882 22.4087 131.312C22.4087 129.743 21.1529 128.487 19.5438 128.487Z" fill="#212326"/>
<path d="M13.3039 138.455H10.5568V132.686H16.2865V135.433C16.2865 137.121 14.9522 138.455 13.3039 138.455Z" fill="#212326"/>
<path d="M16.4042 136.336C16.4042 136.924 15.9333 137.435 15.3054 137.435C14.6775 137.435 14.2065 136.964 14.2065 136.336C14.2065 135.747 14.6775 135.237 15.3054 135.237C15.9333 135.237 16.4042 135.747 16.4042 136.336Z" fill="#FCD59B"/>
<path d="M104.783 149.836L45.6415 159.137C44.3072 159.333 43.0513 158.313 42.8159 156.861L37.5178 123.189C37.2824 121.737 38.185 120.363 39.4801 120.128L98.6217 110.827C99.956 110.631 101.212 111.651 101.447 113.103L106.745 146.775C106.981 148.266 106.117 149.64 104.783 149.836Z" fill="#D1D1DF"/>
<path d="M61.6629 140.237L46.3116 142.655L46.8123 145.834L62.1636 143.416L61.6629 140.237Z" fill="white"/>
<path d="M81.4841 143.459L47.2926 148.845L47.7934 152.024L81.9848 146.638L81.4841 143.459Z" fill="#AF93FF"/>
<path d="M80.4637 137.296L65.1124 139.714L65.6131 142.892L80.9644 140.474L80.4637 137.296Z" fill="white"/>
<path d="M99.2971 134.309L83.9459 136.727L84.4466 139.906L99.7979 137.488L99.2971 134.309Z" fill="white"/>
<path d="M96.8093 118.556L65.9129 123.423L66.1816 125.128L97.078 120.262L96.8093 118.556Z" fill="#212326"/>
<path d="M97.5519 123.225L66.6556 128.092L66.9243 129.798L97.8206 124.931L97.5519 123.225Z" fill="#212326"/>
<path d="M53.6081 134.334L46.1909 135.512C45.6414 135.59 45.092 135.08 44.9743 134.334L44.0324 128.251C43.9147 127.506 44.2679 126.839 44.8173 126.76L52.2345 125.583C52.784 125.504 53.3334 126.014 53.4511 126.76L54.393 132.843C54.5107 133.549 54.1575 134.217 53.6081 134.334Z" fill="white"/>
<path d="M47.1464 126.358L46.4874 126.462L47.8613 135.184L48.5203 135.08L47.1464 126.358Z" fill="#D1D1DF"/>
<path d="M50.605 125.848L49.946 125.951L51.32 134.674L51.979 134.57L50.605 125.848Z" fill="#D1D1DF"/>
<path d="M47.3761 130.708L44.5072 131.159L44.6108 131.818L47.4797 131.367L47.3761 130.708Z" fill="#D1D1DF"/>
<path d="M54.0872 129.65L51.2182 130.101L51.3218 130.76L54.1908 130.309L54.0872 129.65Z" fill="#D1D1DF"/>
<path d="M59.848 158.273L62.1634 157.999C62.9091 157.92 63.5762 157.528 64.0079 156.9L65.3815 155.016C65.46 154.898 65.3422 154.741 65.1853 154.781L62.5559 155.84C62.2812 155.958 61.9672 155.88 61.7317 155.683C61.2216 155.252 60.5544 155.095 59.9265 155.252L58.8669 155.526L59.848 158.273Z" fill="#FCD59B"/>
<path d="M59.848 158.391L41.4816 163.101C40.5789 163.336 39.5978 163.218 38.7737 162.787L22.0555 154.035L24.3709 146.736L41.6385 157.057L58.9847 155.526L59.848 158.391Z" fill="#FDA16E"/>
<path d="M243.788 235.311C242.689 237.351 240.609 238.96 239.157 240.059C238.136 240.844 237.194 241.433 236.567 241.786C235.075 241.394 227.933 239.235 225.696 233.074C224.754 230.523 225.068 228.404 225.696 224.754C227.266 215.296 232.328 205.446 234.997 206.034C235.507 206.152 235.782 206.584 235.978 206.898C243.474 218.592 244.494 228.443 244.494 228.443C244.847 232.171 244.612 233.819 243.788 235.311Z" fill="#212326"/>
<path d="M235.193 251.283L234.094 250.891C235.232 247.634 235.899 244.18 236.056 240.648L237.234 240.687C237.077 244.337 236.37 247.908 235.193 251.283Z" fill="#212326"/>
<path d="M306.147 92.4211C305.716 91.5969 305.284 90.7728 304.852 89.9487L305.873 89.3992C306.304 90.2234 306.736 91.0475 307.168 91.8716L306.147 92.4211ZM303.361 87.2408C302.851 86.3382 302.341 85.4355 301.791 84.5329L302.811 83.9442C303.322 84.8469 303.871 85.7495 304.381 86.6914L303.361 87.2408ZM300.182 81.825C299.633 80.9616 299.083 80.059 298.534 79.1956L299.515 78.5677C300.064 79.4704 300.653 80.3337 301.202 81.2364L300.182 81.825ZM296.807 76.5662C296.218 75.7029 295.63 74.8395 295.041 73.9761L296.022 73.3089C296.611 74.1723 297.199 75.0357 297.788 75.8991L296.807 76.5662ZM293.236 71.4252C292.608 70.5618 291.98 69.7377 291.352 68.9135L292.294 68.2072C292.922 69.0313 293.55 69.8554 294.178 70.7188L293.236 71.4252ZM289.429 66.4411C288.762 65.617 288.095 64.7929 287.467 64.008L288.369 63.2623C289.037 64.0472 289.704 64.8713 290.371 65.6955L289.429 66.4411ZM285.465 61.6533C284.798 60.8684 284.092 60.0835 283.385 59.2986L284.249 58.5137C284.955 59.2986 285.662 60.0835 286.329 60.8684L285.465 61.6533ZM281.266 56.9832C280.56 56.2375 279.814 55.4526 279.108 54.7462L279.932 53.9221C280.677 54.6678 281.384 55.4134 282.13 56.1983L281.266 56.9832ZM276.91 52.5485C276.164 51.8029 275.419 51.0965 274.634 50.3901L275.419 49.5267C276.164 50.2331 276.949 50.9788 277.695 51.6852L276.91 52.5485ZM272.318 48.2709C271.534 47.5645 270.749 46.8973 269.964 46.2302L270.749 45.3275C271.534 45.9947 272.318 46.7011 273.103 47.4075L272.318 48.2709ZM267.57 44.1894C266.746 43.5223 265.961 42.8551 265.137 42.2272L265.843 41.2853C266.667 41.9133 267.491 42.5804 268.315 43.2476L267.57 44.1894ZM262.664 40.3435C261.84 39.7156 260.977 39.0876 260.153 38.499L260.82 37.5571C261.683 38.1458 262.507 38.7737 263.371 39.4016L262.664 40.3435ZM257.562 36.733C256.699 36.1443 255.836 35.5556 254.972 35.0062L255.6 34.0251C256.464 34.6138 257.366 35.1632 258.23 35.7519L257.562 36.733ZM252.304 33.3187C251.44 32.7693 250.538 32.2198 249.635 31.7097L250.224 30.6893C251.126 31.2387 252.029 31.7881 252.932 32.3376L252.304 33.3187ZM246.927 30.1399C246.025 29.6297 245.122 29.1195 244.18 28.6486L244.729 27.6282C245.671 28.1384 246.574 28.6486 247.477 29.1588L246.927 30.1399ZM241.433 27.1965C240.491 26.7256 239.549 26.2547 238.647 25.823L239.157 24.7634C240.099 25.2343 241.04 25.7052 241.982 26.1762L241.433 27.1965ZM235.782 24.4887C234.84 24.057 233.898 23.6253 232.917 23.2328L233.388 22.134C234.369 22.5657 235.311 22.9974 236.253 23.429L235.782 24.4887ZM230.052 21.977C229.11 21.5845 228.129 21.1921 227.148 20.8389L227.58 19.7401C228.561 20.1325 229.542 20.5249 230.523 20.9174L230.052 21.977ZM224.204 19.7401C223.223 19.3868 222.242 19.0336 221.261 18.6804L221.654 17.5816C222.635 17.9348 223.655 18.288 224.636 18.6412L224.204 19.7401ZM218.318 17.6993C217.337 17.3854 216.356 17.0714 215.335 16.7575L215.688 15.6194C216.709 15.9333 217.729 16.2473 218.71 16.5612L218.318 17.6993ZM212.313 15.8941C211.332 15.6194 210.312 15.3447 209.292 15.0699L209.605 13.9318C210.626 14.2066 211.646 14.4813 212.627 14.756L212.313 15.8941ZM206.27 14.2851C205.289 14.0496 204.229 13.8141 203.209 13.5786L203.483 12.4406C204.504 12.676 205.563 12.9115 206.544 13.147L206.27 14.2851ZM200.148 12.9115C199.127 12.7153 198.107 12.4798 197.086 12.2836L197.322 11.1455C198.342 11.3417 199.402 11.5379 200.422 11.7734L200.148 12.9115ZM193.986 11.7342C192.966 11.5379 191.906 11.381 190.886 11.224L191.082 10.0466C192.102 10.2036 193.162 10.3606 194.182 10.5568L193.986 11.7342ZM128.565 11.3025L128.33 10.1644C128.369 10.1644 129.468 9.9289 131.469 9.65419L131.666 10.8315C129.664 11.1062 128.565 11.3025 128.565 11.3025ZM187.825 10.7923C186.765 10.6353 185.745 10.5176 184.724 10.3998L184.881 9.22249C185.902 9.34023 186.961 9.49721 188.021 9.61494L187.825 10.7923ZM134.727 10.3606L134.57 9.18325C135.59 9.06552 136.65 8.90854 137.709 8.83005L137.827 10.0074C136.767 10.0859 135.747 10.2429 134.727 10.3606ZM181.585 10.0074C180.525 9.88965 179.505 9.81117 178.485 9.69343L178.602 8.5161C179.623 8.59459 180.682 8.71231 181.742 8.83005L181.585 10.0074ZM140.967 9.69343L140.849 8.5161C141.83 8.43761 142.89 8.31987 143.989 8.24138L144.067 9.41872C142.968 9.49721 141.948 9.5757 140.967 9.69343ZM175.345 9.45796C174.285 9.37948 173.265 9.30099 172.205 9.26174L172.284 8.0844C173.304 8.16289 174.364 8.20214 175.423 8.28063L175.345 9.45796ZM147.207 9.22249L147.128 8.04516C148.148 7.96667 149.208 7.92742 150.268 7.88818L150.307 9.06552C149.247 9.10476 148.188 9.14401 147.207 9.22249ZM169.105 9.06552C168.045 9.02627 166.986 8.98703 165.965 8.94778L166.005 7.77044C167.025 7.80969 168.085 7.84894 169.144 7.88818L169.105 9.06552ZM153.446 8.94778L153.407 7.77044C154.428 7.7312 155.487 7.7312 156.547 7.69196V8.8693C155.526 8.8693 154.467 8.90854 153.446 8.94778ZM162.826 8.8693C161.766 8.8693 160.707 8.83005 159.686 8.83005V7.65271C160.707 7.65271 161.766 7.65271 162.826 7.69196V8.8693Z" fill="#EFEFF4"/>
<path d="M291.705 93.5984C291.156 92.6958 290.606 91.8324 290.057 90.9298L291.038 90.3019C291.587 91.1652 292.176 92.0679 292.726 92.9705L291.705 93.5984ZM288.33 88.3396C287.742 87.4763 287.153 86.6129 286.564 85.7495L287.545 85.0823C288.134 85.9457 288.723 86.8091 289.311 87.6725L288.33 88.3396ZM284.759 83.1986C284.17 82.3745 283.542 81.5111 282.914 80.6869L283.856 79.9805C284.484 80.8047 285.112 81.6681 285.74 82.5314L284.759 83.1986ZM280.991 78.2145C280.364 77.3904 279.696 76.5663 279.029 75.7814L279.932 75.0357C280.599 75.8599 281.266 76.684 281.894 77.5081L280.991 78.2145ZM277.028 73.3874C276.361 72.6025 275.654 71.8177 274.987 71.0328L275.85 70.2479C276.557 71.0328 277.263 71.8177 277.93 72.6025L277.028 73.3874ZM272.868 68.7173C272.161 67.9717 271.416 67.1868 270.709 66.4411L271.534 65.617C272.279 66.3627 272.986 67.1475 273.692 67.8932L272.868 68.7173ZM268.512 64.2434C267.766 63.537 267.02 62.7914 266.275 62.085L267.099 61.2216C267.884 61.928 268.629 62.6737 269.375 63.4193L268.512 64.2434ZM263.959 59.9658C263.174 59.2594 262.389 58.5922 261.605 57.8858L262.389 56.9832C263.174 57.6504 263.959 58.3567 264.744 59.0632L263.959 59.9658ZM259.211 55.8843C258.426 55.2172 257.602 54.55 256.778 53.9221L257.523 52.9802C258.347 53.6474 259.171 54.2753 259.996 54.9425L259.211 55.8843ZM254.305 52.0384C253.481 51.4105 252.618 50.7825 251.793 50.1939L252.461 49.252C253.324 49.8407 254.148 50.4686 255.012 51.0965L254.305 52.0384ZM249.203 48.3886C248.34 47.8 247.477 47.2113 246.613 46.6619L247.241 45.6807C248.104 46.2302 249.007 46.8188 249.87 47.4467L249.203 48.3886ZM243.984 44.9743C243.081 44.4249 242.179 43.8755 241.315 43.3653L241.904 42.3449C242.806 42.8551 243.709 43.4045 244.612 43.954L243.984 44.9743ZM238.568 41.8348C237.665 41.3246 236.724 40.8144 235.821 40.3435L236.37 39.2839C237.312 39.7548 238.215 40.265 239.157 40.7752L238.568 41.8348ZM233.035 38.8914C232.093 38.4205 231.151 37.9888 230.209 37.5179L230.719 36.4583C231.661 36.8899 232.603 37.3609 233.545 37.8318L233.035 38.8914ZM227.383 36.262C226.441 35.8303 225.46 35.4379 224.518 35.0454L224.95 33.9466C225.931 34.339 226.912 34.7707 227.854 35.2024L227.383 36.262ZM221.614 33.8681C220.633 33.5149 219.652 33.1225 218.671 32.7693L219.063 31.6704C220.045 32.0236 221.065 32.3768 222.007 32.7693L221.614 33.8681ZM215.728 31.7489C214.747 31.4349 213.726 31.121 212.745 30.807L213.098 29.6689C214.079 29.9829 215.1 30.2968 216.12 30.6108L215.728 31.7489ZM209.723 29.9436C208.703 29.6689 207.683 29.3942 206.701 29.1588L206.976 28.0207C207.996 28.2561 209.017 28.5308 210.037 28.8056L209.723 29.9436ZM203.64 28.4524C202.62 28.2169 201.56 28.0207 200.579 27.8244L200.775 26.6863C201.796 26.8826 202.816 27.0788 203.876 27.3143L203.64 28.4524ZM197.518 27.3143C195.556 27.0395 194.457 26.9611 194.418 26.9611L194.496 25.7837C194.536 25.7837 195.674 25.8622 197.675 26.1762L197.518 27.3143Z" fill="#EFEFF4"/>
<path d="M294.962 50.7825C294.413 49.9192 293.864 49.0558 293.275 48.1924L294.256 47.5253C294.884 48.3886 295.433 49.2913 295.983 50.1939L294.962 50.7825ZM291.43 45.6807C290.803 44.8566 290.135 44.0717 289.468 43.2476L290.371 42.5019C291.038 43.3261 291.705 44.1502 292.333 44.9744L291.43 45.6807ZM287.428 40.9322C286.76 40.1865 286.015 39.4016 285.269 38.656L286.093 37.8318C286.839 38.5775 287.584 39.3624 288.252 40.108L287.428 40.9322ZM283.032 36.4583C282.286 35.7519 281.502 35.0455 280.717 34.3391L281.502 33.4757C282.286 34.1821 283.071 34.8885 283.817 35.5949L283.032 36.4583ZM278.362 32.3376C277.577 31.6704 276.753 31.0033 275.929 30.3754L276.674 29.4335C277.499 30.1006 278.323 30.7678 279.147 31.435L278.362 32.3376ZM273.456 28.4524C272.632 27.8245 271.769 27.2358 270.906 26.6079L271.573 25.6268C272.436 26.2154 273.299 26.8433 274.124 27.4713L273.456 28.4524ZM268.355 24.8419C267.491 24.2532 266.628 23.7038 265.725 23.1151L266.353 22.134C267.256 22.6834 268.119 23.2721 268.983 23.8607L268.355 24.8419ZM263.096 21.4668C262.193 20.9174 261.291 20.4072 260.388 19.8578L260.977 18.8374C261.879 19.3476 262.782 19.897 263.685 20.4465L263.096 21.4668ZM257.641 18.3665C256.738 17.8563 255.796 17.3854 254.854 16.9145L255.404 15.8548C256.346 16.3258 257.288 16.836 258.19 17.3461L257.641 18.3665ZM252.068 15.5016C250.302 14.6383 249.242 14.2066 249.242 14.2066L249.713 13.1077C249.753 13.1077 250.812 13.5787 252.618 14.442L252.068 15.5016Z" fill="#EFEFF4"/>
<path d="M18.131 120.638L16.9537 120.559C17.0322 119.5 17.1106 118.44 17.2284 117.42L18.4057 117.538C18.288 118.558 18.2095 119.618 18.131 120.638ZM18.8374 114.437L17.6601 114.241C17.8171 113.221 18.0133 112.161 18.2095 111.141L19.3476 111.376C19.1514 112.397 18.9944 113.417 18.8374 114.437ZM20.0147 108.315L18.8767 108.04C19.1121 107.02 19.3868 106 19.6616 104.979L20.7996 105.293C20.5249 106.314 20.2502 107.334 20.0147 108.315ZM21.663 102.311L20.5249 101.957C20.8389 100.976 21.1921 99.956 21.5453 98.9749L22.6441 99.3673C22.3302 100.348 21.977 101.33 21.663 102.311ZM23.7822 96.4632L22.6834 96.0316C23.0758 95.0504 23.5075 94.0693 23.9 93.1275L24.9596 93.5984C24.6064 94.5403 24.1747 95.5214 23.7822 96.4632ZM26.3331 90.7728L25.2735 90.2626C25.7445 89.3207 26.2154 88.3789 26.7256 87.437L27.7852 87.9864C27.275 88.889 26.8041 89.8309 26.3331 90.7728ZM29.2765 85.2393L28.2561 84.6506C28.7663 83.748 29.3157 82.8454 29.8651 81.9427L30.8855 82.5706C30.2968 83.434 29.7867 84.3367 29.2765 85.2393ZM32.5338 79.9413L31.5527 79.2741C32.1413 78.4107 32.73 77.5081 33.3579 76.684L34.2998 77.3511C33.7111 78.2145 33.1224 79.0779 32.5338 79.9413ZM36.1835 74.8395L35.2417 74.1331C35.8696 73.3089 36.5367 72.4455 37.2039 71.6606L38.1065 72.4063C37.4786 73.1912 36.8114 74.0153 36.1835 74.8395ZM40.1472 70.0516L39.2839 69.2667C40.6182 67.7754 41.4423 66.9905 41.4816 66.9513L42.3057 67.8147C42.3057 67.7754 41.4815 68.5603 40.1472 70.0516Z" fill="#EFEFF4"/>
<path d="M3.72827 121.933L2.55093 121.776L2.62942 121.187L3.80676 121.344L3.72827 121.933ZM4.23845 118.205L3.06112 118.048C3.21809 116.988 3.37507 115.968 3.5713 114.947L4.74863 115.144C4.55241 116.164 4.35619 117.184 4.23845 118.205ZM5.29806 112.043L4.15997 111.808C4.35619 110.788 4.59165 109.728 4.78788 108.708L5.92597 108.982C5.69051 110.003 5.49428 111.023 5.29806 112.043ZM6.63237 105.96L5.49428 105.686C5.72975 104.665 6.00446 103.645 6.27917 102.625L7.41726 102.939C7.14255 103.92 6.90708 104.94 6.63237 105.96ZM8.28065 99.9168L7.14256 99.5636C7.45652 98.5432 7.77047 97.5621 8.08443 96.5418L9.18327 96.8949C8.90856 97.9153 8.59461 98.9357 8.28065 99.9168ZM10.2821 93.9909L9.18327 93.5984C9.53647 92.6173 9.92892 91.5969 10.3214 90.6551L11.4202 91.0868C11.0278 92.0286 10.6353 93.0097 10.2821 93.9909ZM12.5976 88.2219L11.4987 87.751C11.9304 86.7698 12.3621 85.828 12.7938 84.8861L13.8534 85.3963C13.4217 86.2989 12.99 87.2408 12.5976 88.2219ZM15.2662 82.5707L14.2066 82.0212C14.7168 81.0794 15.1877 80.1375 15.6979 79.2349L16.7182 79.8235C16.2473 80.6869 15.7371 81.6288 15.2662 82.5707ZM18.3273 77.1157L17.3462 76.4878C18.445 74.761 19.1122 73.8584 19.1514 73.8191L20.0933 74.5255C20.0148 74.5648 19.3476 75.4674 18.3273 77.1157Z" fill="#EFEFF4"/>
</svg>
