<svg width="264" height="56" viewBox="0 0 264 56" fill="none" xmlns="http://www.w3.org/2000/svg">
<path d="M81.332 24.796H73.01V46H67.006V24.796H58.722V19.058H81.332V24.796ZM87.3773 41.25C88.5679 41.25 89.5686 40.8447 90.3793 40.034C91.2153 39.2233 91.6333 38.058 91.6333 36.538C91.6333 35.018 91.2153 33.8653 90.3793 33.08C89.5686 32.2693 88.5679 31.864 87.3773 31.864C86.2119 31.864 85.2113 32.2693 84.3753 33.08C83.5393 33.8907 83.1213 35.0433 83.1213 36.538C83.1213 38.0327 83.5393 39.198 84.3753 40.034C85.2113 40.8447 86.2119 41.25 87.3773 41.25ZM87.3773 26.544C90.2399 26.544 92.6213 27.4813 94.5213 29.356C96.4466 31.2307 97.4093 33.6247 97.4093 36.538C97.4093 39.4513 96.4466 41.858 94.5213 43.758C92.6213 45.6327 90.2399 46.57 87.3773 46.57C84.5399 46.57 82.1586 45.62 80.2333 43.72C78.3079 41.82 77.3453 39.426 77.3453 36.538C77.3453 33.65 78.3079 31.2687 80.2333 29.394C82.1586 27.494 84.5399 26.544 87.3773 26.544ZM97.5173 47.064L102.609 45.62C102.812 46.5573 103.268 47.3173 103.977 47.9C104.712 48.4827 105.611 48.774 106.675 48.774C109.791 48.774 111.349 47.1653 111.349 43.948V43.074C110.412 44.4927 108.727 45.202 106.295 45.202C103.787 45.202 101.697 44.328 100.025 42.58C98.3533 40.832 97.5173 38.6407 97.5173 36.006C97.5173 33.4727 98.3407 31.3067 99.9873 29.508C101.659 27.684 103.762 26.772 106.295 26.772C107.689 26.772 108.829 27.0127 109.715 27.494C110.602 27.9753 111.21 28.52 111.539 29.128V27.114H117.049V43.644C117.049 46.5827 116.201 49.002 114.503 50.902C112.806 52.8273 110.285 53.79 106.941 53.79C104.357 53.79 102.204 53.1187 100.481 51.776C98.784 50.4587 97.796 48.888 97.5173 47.064ZM104.433 39.046C105.193 39.806 106.169 40.186 107.359 40.186C108.55 40.186 109.513 39.806 110.247 39.046C111.007 38.286 111.387 37.2727 111.387 36.006C111.387 34.7647 110.995 33.764 110.209 33.004C109.424 32.2187 108.474 31.826 107.359 31.826C106.245 31.826 105.282 32.2187 104.471 33.004C103.686 33.764 103.293 34.7647 103.293 36.006C103.293 37.2727 103.673 38.286 104.433 39.046ZM124.019 34.296H131.581C131.531 33.4347 131.189 32.6873 130.555 32.054C129.947 31.4207 129.023 31.104 127.781 31.104C126.667 31.104 125.78 31.4333 125.121 32.092C124.463 32.7507 124.095 33.4853 124.019 34.296ZM131.999 39.198L136.825 40.566C136.344 42.314 135.343 43.758 133.823 44.898C132.303 46.0127 130.403 46.57 128.123 46.57C125.387 46.57 123.057 45.658 121.131 43.834C119.231 42.01 118.281 39.5653 118.281 36.5C118.281 33.5613 119.206 31.1673 121.055 29.318C122.93 27.4687 125.147 26.544 127.705 26.544C130.644 26.544 132.949 27.4053 134.621 29.128C136.319 30.8253 137.167 33.194 137.167 36.234C137.167 37.1967 137.129 37.792 137.053 38.02H123.905C123.956 39.0587 124.399 39.9327 125.235 40.642C126.071 41.326 127.059 41.668 128.199 41.668C130.15 41.668 131.417 40.8447 131.999 39.198ZM145.512 21.604V27.114H149.198V32.168H145.512V39.236C145.512 40.5533 146.209 41.212 147.602 41.212C148.058 41.212 148.565 41.1487 149.122 41.022V45.81C148.413 46.1647 147.412 46.342 146.12 46.342C144.169 46.342 142.624 45.7973 141.484 44.708C140.369 43.6187 139.812 42.1367 139.812 40.262V32.168H136.468V27.114H137.418C138.381 27.114 139.103 26.8353 139.584 26.278C140.091 25.6953 140.344 24.948 140.344 24.036V21.604H145.512ZM155.377 34.904V46H149.601V18.488H155.377V28.33C156.517 27.19 158.126 26.62 160.203 26.62C162.559 26.62 164.332 27.3293 165.523 28.748C166.739 30.1413 167.347 31.94 167.347 34.144V46H161.571V35.132C161.571 34.144 161.305 33.3587 160.773 32.776C160.266 32.168 159.506 31.864 158.493 31.864C157.606 31.864 156.872 32.1553 156.289 32.738C155.732 33.2953 155.428 34.0173 155.377 34.904ZM174.291 34.296H181.853C181.802 33.4347 181.46 32.6873 180.827 32.054C180.219 31.4207 179.294 31.104 178.053 31.104C176.938 31.104 176.051 31.4333 175.393 32.092C174.734 32.7507 174.367 33.4853 174.291 34.296ZM182.271 39.198L187.097 40.566C186.615 42.314 185.615 43.758 184.095 44.898C182.575 46.0127 180.675 46.57 178.395 46.57C175.659 46.57 173.328 45.658 171.403 43.834C169.503 42.01 168.553 39.5653 168.553 36.5C168.553 33.5613 169.477 31.1673 171.327 29.318C173.201 27.4687 175.418 26.544 177.977 26.544C180.915 26.544 183.221 27.4053 184.893 29.128C186.59 30.8253 187.439 33.194 187.439 36.234C187.439 37.1967 187.401 37.792 187.325 38.02H174.177C174.227 39.0587 174.671 39.9327 175.507 40.642C176.343 41.326 177.331 41.668 178.471 41.668C180.421 41.668 181.688 40.8447 182.271 39.198ZM200.875 27.114V32.814C200.343 32.6873 199.735 32.624 199.051 32.624C197.759 32.624 196.695 33.042 195.859 33.878C195.049 34.714 194.643 36.006 194.643 37.754V46H188.867V27.114H194.453V29.66C194.909 28.6973 195.606 28.0007 196.543 27.57C197.481 27.1393 198.418 26.924 199.355 26.924C199.938 26.924 200.445 26.9873 200.875 27.114ZM235.015 36.348L239.385 19.058H245.541L238.207 46H232.013L226.275 28.14L220.499 46H214.191L206.857 19.058H213.241L217.687 36.31L223.273 19.058H229.429L235.015 36.348ZM249.038 34.296H256.6C256.549 33.4347 256.207 32.6873 255.574 32.054C254.966 31.4207 254.041 31.104 252.8 31.104C251.685 31.104 250.799 31.4333 250.14 32.092C249.481 32.7507 249.114 33.4853 249.038 34.296ZM257.018 39.198L261.844 40.566C261.363 42.314 260.362 43.758 258.842 44.898C257.322 46.0127 255.422 46.57 253.142 46.57C250.406 46.57 248.075 45.658 246.15 43.834C244.25 42.01 243.3 39.5653 243.3 36.5C243.3 33.5613 244.225 31.1673 246.074 29.318C247.949 27.4687 250.165 26.544 252.724 26.544C255.663 26.544 257.968 27.4053 259.64 29.128C261.337 30.8253 262.186 33.194 262.186 36.234C262.186 37.1967 262.148 37.792 262.072 38.02H248.924C248.975 39.0587 249.418 39.9327 250.254 40.642C251.09 41.326 252.078 41.668 253.218 41.668C255.169 41.668 256.435 40.8447 257.018 39.198Z" fill="url(#paint0_linear_1_708)"/>
<circle cx="28" cy="32" r="16" fill="url(#paint1_linear_1_708)"/>
<path d="M27.6704 8.98023C28.0959 8.03792 27.679 6.91765 26.6934 6.60509C24.9488 6.05178 23.1177 5.80049 21.2794 5.86683C18.8158 5.95573 16.406 6.61272 14.2381 7.78654C12.0702 8.96036 10.2029 10.6192 8.78191 12.6337C7.72161 14.1369 6.93118 15.8077 6.44097 17.571C6.16405 18.5672 6.87432 19.5286 7.89597 19.6873C8.91762 19.8461 9.86081 19.1396 10.1732 18.1539C10.5522 16.9578 11.1139 15.8233 11.8414 14.7919C12.9299 13.2488 14.3603 11.9781 16.0208 11.079C17.6814 10.1799 19.5273 9.67661 21.4144 9.60852C22.6758 9.563 23.9328 9.71272 25.1417 10.0491C26.1377 10.3262 27.2449 9.92254 27.6704 8.98023Z" fill="url(#paint2_linear_1_708)"/>
<defs>
<linearGradient id="paint0_linear_1_708" x1="161" y1="8" x2="161.454" y2="56.0009" gradientUnits="userSpaceOnUse">
<stop stop-color="#818BE9"/>
<stop offset="1" stop-color="#AF93FF"/>
</linearGradient>
<linearGradient id="paint1_linear_1_708" x1="28" y1="29" x2="37.5" y2="48" gradientUnits="userSpaceOnUse">
<stop stop-color="#AF93FF"/>
<stop offset="1" stop-color="#818BE9"/>
</linearGradient>
<linearGradient id="paint2_linear_1_708" x1="7.27401" y1="15.272" x2="19" y2="12" gradientUnits="userSpaceOnUse">
<stop stop-color="#818BE9"/>
<stop offset="1" stop-color="#AF93FF"/>
</linearGradient>
</defs>
</svg>
