<svg width="293" height="234" viewBox="0 0 293 234" fill="none" xmlns="http://www.w3.org/2000/svg">
<path d="M62.4329 65.562L225.55 48.5195C226.3 48.4407 227.059 48.5266 227.773 48.771C228.486 49.0154 229.138 49.4124 229.683 49.9346C230.228 50.4567 230.652 51.0912 230.927 51.7941C231.201 52.497 231.319 53.2512 231.272 54.0042L225.411 149.426C225.331 150.711 224.778 151.921 223.857 152.821C222.936 153.721 221.713 154.247 220.426 154.296L76.5628 159.807C75.2941 159.856 74.0515 159.438 73.0699 158.633C72.0883 157.827 71.4357 156.69 71.2354 155.437L57.8356 71.5473C57.7246 70.8497 57.7569 70.1368 57.9307 69.4522C58.1044 68.7675 58.416 68.1255 58.8462 67.5653C59.2765 67.0051 59.8165 66.5386 60.4332 66.1941C61.0499 65.8497 61.7303 65.6346 62.4329 65.562Z" fill="#EBEDFC"/>
<path d="M20.3628 210.821L263.468 211.471C263.468 211.471 248.477 199.088 238.049 202.999C227.621 206.91 234.791 167.804 217.846 165.849C200.901 163.893 202.854 197.132 187.865 196.482C172.876 195.832 162.446 187.357 150.715 197.772C138.985 208.187 130.51 210.155 114.855 207.547C99.2008 204.939 90.7543 165.849 71.2041 171.716C51.6539 177.582 65.9902 201.043 55.5624 201.043C45.1346 201.043 36.0097 193.874 33.4014 201.043C30.7932 208.213 20.3628 210.821 20.3628 210.821Z" fill="#EBEDFC"/>
<path d="M214.387 187.7L209.965 197.762C209.825 198.079 209.8 198.435 209.895 198.768C209.989 199.101 210.196 199.391 210.481 199.588C210.805 199.815 211.206 199.904 211.596 199.836C211.986 199.767 212.333 199.546 212.56 199.222L221.352 186.668L217.031 184.019L214.387 187.7Z" fill="#1C5276"/>
<path d="M211.346 185.767L213.947 182.054L217.148 184.297C217.587 184.604 217.886 185.073 217.978 185.601C218.071 186.128 217.951 186.671 217.644 187.11L217.362 187.512C217.055 187.95 216.586 188.249 216.058 188.342C215.531 188.435 214.988 188.315 214.549 188.007L211.348 185.765L211.346 185.767Z" fill="#FB855F"/>
<path d="M167.691 204.627L156.904 206.781C156.565 206.849 156.26 207.031 156.041 207.299C155.822 207.566 155.702 207.901 155.702 208.246C155.703 208.643 155.861 209.023 156.141 209.303C156.422 209.583 156.802 209.74 157.198 209.74H172.531L172.224 204.681L167.691 204.627Z" fill="#1C5276"/>
<path d="M167.526 201.036H172.059V204.944C172.059 205.209 172.006 205.472 171.905 205.717C171.803 205.962 171.655 206.185 171.467 206.373C171.279 206.56 171.057 206.709 170.812 206.81C170.567 206.912 170.304 206.964 170.039 206.964H169.548C169.013 206.964 168.499 206.751 168.12 206.373C167.741 205.994 167.528 205.48 167.528 204.944V201.036H167.526Z" fill="#FB855F"/>
<path d="M166.058 73.766C166.058 73.766 163.137 82.1995 159.463 88.6079C158.501 90.3593 157.353 92.0026 156.04 93.5096C154.221 95.4858 152.382 96.3604 150.733 95.0937C150.481 94.9017 150.264 94.6679 150.091 94.4023C149.943 94.173 149.825 93.926 149.74 93.667C149.739 93.6602 149.739 93.6532 149.74 93.6464C149.576 93.098 149.506 92.5257 149.534 91.954C149.575 90.5325 150.05 88.8246 150.78 87.0032C153.669 79.7796 160.583 70.812 160.583 70.812C164.079 70.3967 166.058 73.766 166.058 73.766Z" fill="#1C5276"/>
<path d="M174.474 100.233C174.474 100.233 162.882 100.46 155.496 97.9496C153.03 97.1137 151.033 95.9708 150.078 94.4126C149.938 94.1793 149.821 93.9331 149.728 93.6773C149.727 93.6705 149.727 93.6636 149.728 93.6567C149.538 93.1139 149.468 92.5367 149.521 91.9643C149.535 91.7858 149.56 91.6083 149.596 91.4329C149.903 89.885 151.381 89.062 153.489 88.7008C155.171 88.4144 157.253 88.4247 159.461 88.6105C166.816 89.2348 175.567 91.8095 175.567 91.8095C178.87 93.52 178.625 99.6446 174.474 100.233Z" fill="#1C5276"/>
<path d="M200.022 77.9453C200.02 77.9495 200.02 77.9541 200.022 77.9582C200.022 78.1698 200.042 78.3736 200.037 78.5697C200.046 79.2726 199.848 79.9625 199.467 80.5536C199.33 80.7506 199.168 80.93 198.987 81.0876C197.749 82.1557 196.315 81.908 194.821 80.8296C193.469 79.8699 192.073 78.2498 190.721 76.3149C186.336 70.0613 182.466 60.6577 182.466 60.6577C182.466 60.6577 184.241 57.18 187.778 57.3993C187.778 57.3993 195.626 66.4675 198.765 73.6034C199.459 75.1926 199.921 76.6761 200.022 77.9453Z" fill="#1C5276"/>
<path d="M200.68 77.192V77.2049C200.775 77.3851 200.856 77.5722 200.922 77.7647C201.14 78.4295 201.213 79.1333 201.137 79.8286C201.013 81.2347 200.425 82.8084 199.555 84.4337C195.905 91.2781 187.265 99.0667 187.265 99.0667C183.885 101.551 179.525 97.431 180.694 93.9069C180.694 93.9069 186.083 84.6427 191.452 79.1785C193.258 77.3313 195.082 75.9176 196.681 75.4455C197.664 75.1539 198.564 75.2158 199.336 75.7473C199.894 76.1131 200.355 76.6089 200.68 77.192Z" fill="#1C5276"/>
<path d="M167.551 169.174C165.951 169.175 164.411 168.563 163.248 167.464C162.085 166.364 161.387 164.862 161.297 163.264C160.524 149.217 160.18 134.829 160.508 124.274H174.217C173.784 136.297 173.678 150.285 173.818 162.838C173.827 163.667 173.671 164.489 173.361 165.258C173.05 166.026 172.59 166.725 172.007 167.314C171.424 167.904 170.73 168.372 169.965 168.691C169.201 169.01 168.38 169.174 167.551 169.174Z" fill="#68A3C1"/>
<path d="M167.546 157.098C166.695 157.098 165.853 157.272 165.072 157.609C164.291 157.946 163.587 158.44 163.003 159.059C162.42 159.678 161.969 160.41 161.679 161.21C161.389 162.01 161.265 162.861 161.316 163.71C162.041 175.815 163.073 193.51 163.609 201.27H174.218C173.797 192.427 173.924 174.295 173.789 163.259C173.768 161.617 173.101 160.05 171.933 158.897C170.764 157.743 169.188 157.097 167.546 157.098Z" fill="#68A3C1"/>
<path d="M189.739 164.82C188.176 165.168 186.54 164.904 185.166 164.082C183.792 163.261 182.785 161.944 182.353 160.403C178.555 146.856 175.108 132.883 173.145 122.507L186.524 119.54C188.702 131.372 191.625 145.053 194.475 157.279C194.664 158.085 194.69 158.921 194.554 159.737C194.417 160.554 194.12 161.336 193.68 162.037C193.239 162.738 192.664 163.345 191.988 163.823C191.311 164.3 190.547 164.639 189.739 164.82Z" fill="#68A3C1"/>
<path d="M183.789 153.847C183.16 154.421 182.655 155.116 182.305 155.892C181.954 156.668 181.766 157.507 181.752 158.358C181.738 159.209 181.897 160.054 182.222 160.84C182.546 161.627 183.028 162.34 183.637 162.934C192.323 171.396 205.001 183.782 210.625 189.158L218.468 182.014C212.201 175.761 200.086 162.273 192.553 154.201C191.432 153.002 189.884 152.292 188.244 152.226C186.603 152.16 185.003 152.742 183.789 153.847Z" fill="#68A3C1"/>
<path d="M160.508 124.274C160.508 124.274 160.859 96.4507 168.532 92.488C172.917 90.2177 182.035 90.8343 186.676 93.9714C191.361 97.1369 188.053 124.274 188.053 124.274H160.508Z" fill="#1C5276"/>
<path d="M183.586 61.4962C183.586 61.4962 182.069 61.1272 181.204 60.1882C180.34 59.2491 179.878 58.5087 178.452 58.0598C177.025 57.6109 177.771 56.1223 178.988 56.5686C180.206 57.0149 182.035 58.0004 182.084 56.3493C182.133 54.6982 178.96 51.9146 181.452 51.0658C181.452 51.0658 180.345 49.4714 181.104 49.0612C181.862 48.651 182.874 50.0932 182.874 50.0932C182.874 50.0932 183.751 47.939 185.662 52.059C185.662 52.059 186.529 51.3754 187.004 52.1235C187.778 53.3206 188.229 56.4628 187.873 58.9653C187.298 63.0312 183.586 61.4962 183.586 61.4962Z" fill="#FD8B66"/>
<path d="M181.457 51.0658C181.457 51.0658 182.334 51.8139 183.573 55.7585" stroke="#E56542" stroke-width="0.257986" stroke-miterlimit="10"/>
<path d="M182.878 50.0906C182.878 50.0906 184.47 52.9078 184.942 55.0465" stroke="#E56542" stroke-width="0.257986" stroke-miterlimit="10"/>
<path d="M185.667 52.0564C185.667 52.0564 186.08 53.6689 186.351 54.9614" stroke="#E56542" stroke-width="0.257986" stroke-miterlimit="10"/>
<path d="M165.482 74.0575C165.482 74.0575 166.734 73.2242 167.268 72.0658C167.802 70.9075 168.042 70.0665 169.182 69.1867C170.322 68.307 169.311 67.1538 168.343 67.9639C167.376 68.7739 166.001 70.2857 165.549 68.761C165.098 67.2363 167.226 63.6013 164.814 63.6013C164.814 63.6013 165.402 61.7516 164.634 61.6123C163.865 61.4729 163.32 63.1447 163.32 63.1447C163.32 63.1447 162.031 61.4136 161.334 65.8845C161.334 65.8845 160.403 65.5233 160.165 66.3798C159.786 67.7446 160.142 70.8352 161.068 73.0642C162.577 76.6941 165.482 74.0575 165.482 74.0575Z" fill="#FD8B66"/>
<path d="M164.815 63.6116C164.815 63.6116 164.222 64.592 164.093 68.6862" stroke="#E56542" stroke-width="0.257986" stroke-miterlimit="10"/>
<path d="M163.32 63.155C163.32 63.155 162.601 66.3076 162.706 68.4618" stroke="#E56542" stroke-width="0.257986" stroke-miterlimit="10"/>
<path d="M161.334 65.8948C161.334 65.8948 161.365 67.5382 161.44 68.8333" stroke="#E56542" stroke-width="0.257986" stroke-miterlimit="10"/>
<path d="M176.702 95.9837C173.799 95.9837 172.476 92.5938 173.255 91.8147C173.489 91.5682 173.676 91.2804 173.805 90.9659C174.001 90.4946 174.133 89.9992 174.197 89.4928L179.558 84.7072C179.266 87.754 180.572 89.8927 181.044 91.4148C181.516 92.9369 180.001 95.9837 176.702 95.9837Z" fill="#FB855F"/>
<path d="M178.627 88.3086C177.079 91.2523 173.895 90.9607 173.808 90.9659C174.004 90.4946 174.135 89.9992 174.2 89.4928C174.347 89.4077 180.074 85.5508 178.627 88.3086Z" fill="#E56542"/>
<path d="M184.876 79.2301C184.876 79.2301 184.643 82.0112 180.591 84.8774C176.349 87.8804 181.176 78.6497 181.176 78.6497L184.876 79.2301Z" fill="#8E3332"/>
<path d="M173.835 77.5609C173.835 77.5609 173.263 79.9576 172.52 82.6458C171.459 86.4924 171.369 89.6115 175.285 89.6115C181.864 89.6115 181.428 78.6961 181.428 78.6961L173.835 77.5609Z" fill="#FB855F"/>
<path d="M179.314 79.9189C179.314 79.9189 169.448 79.6971 170.8 73.0255C172.152 66.354 176.029 74.6225 178.024 74.6225C180.377 74.6225 186.795 74.9656 184.435 80.5562C183.844 82.0215 182.869 80.146 179.314 79.9189Z" fill="#8E3332"/>
<path d="M163.073 102.374C163.073 102.374 164.851 95.5735 166.685 94.0308" stroke="#0D4260" stroke-width="0.257986" stroke-miterlimit="10"/>
<path d="M159.415 88.6931L157.305 91.9798" stroke="#0D4260" stroke-width="0.257986" stroke-miterlimit="10"/>
<path d="M191.451 79.1708L194.738 78.0924" stroke="#0D4260" stroke-width="0.257986" stroke-miterlimit="10"/>
<path d="M167.438 138.25L179.279 137.71L175.512 125.869L169.86 125.061L167.438 138.25Z" fill="#68A3C1"/>
<path d="M172.417 124.388L171.476 132.058L174.703 132.329" stroke="#1C5276" stroke-width="0.515972" stroke-miterlimit="10"/>
<path d="M180.541 87.4134C181.758 87.4134 182.744 86.427 182.744 85.2102C182.744 83.9934 181.758 83.007 180.541 83.007C179.324 83.007 178.338 83.9934 178.338 85.2102C178.338 86.427 179.324 87.4134 180.541 87.4134Z" fill="#FB855F"/>
<path d="M162.503 124.164L161.964 134.929L160.439 136.276" stroke="#1C5276" stroke-width="0.515972" stroke-miterlimit="10"/>
<path d="M184.842 124.344L187.533 135.378L189.777 136.095" stroke="#1C5276" stroke-width="0.515972" stroke-miterlimit="10"/>
<path d="M163.609 201.27L163.266 197.865L173.761 197.463L174.218 201.27H163.609Z" stroke="#1C5276" stroke-width="0.515972" stroke-miterlimit="10"/>
<path d="M207.676 186.292L210.625 189.158L218.468 182.014L215.48 179.161L207.676 186.292Z" stroke="#1C5276" stroke-width="0.515972" stroke-miterlimit="10"/>
<path d="M171.654 90.9685C171.654 90.9685 171.205 97.1601 175.781 97.609C180.358 98.0579 181.702 95.3646 182.959 91.5077" stroke="#83CAF2" stroke-width="0.257986" stroke-miterlimit="10"/>
<path d="M156.133 94.7583C156.135 95.8538 155.918 96.9387 155.496 97.9496C153.03 97.1137 151.033 95.9708 150.078 94.4126C149.931 94.1834 149.813 93.9363 149.728 93.6773C149.727 93.6705 149.727 93.6636 149.728 93.6567C149.538 93.1139 149.468 92.5367 149.521 91.9643C149.562 90.5428 150.037 88.8349 150.767 87.0136C152.145 87.5328 153.359 88.4095 154.285 89.5534C155.211 90.6974 155.816 92.0674 156.038 93.5226C156.101 93.9315 156.133 94.3446 156.133 94.7583Z" fill="#83CAF2"/>
<path d="M177.429 83.2521C177.683 83.2521 177.889 83.0465 177.889 82.7929C177.889 82.5393 177.683 82.3337 177.429 82.3337C177.176 82.3337 176.97 82.5393 176.97 82.7929C176.97 83.0465 177.176 83.2521 177.429 83.2521Z" fill="#8E3332"/>
<path d="M174.564 82.6201C174.817 82.6201 175.023 82.4145 175.023 82.1608C175.023 81.9072 174.817 81.7016 174.564 81.7016C174.31 81.7016 174.104 81.9072 174.104 82.1608C174.104 82.4145 174.31 82.6201 174.564 82.6201Z" fill="#8E3332"/>
<path d="M175.861 82.7155C175.899 83.0553 175.832 83.3984 175.67 83.6993C175.508 84.0002 175.258 84.2447 174.953 84.4002C173.88 84.9523 174.768 85.9094 175.727 85.4708" stroke="#8E3332" stroke-width="0.515972" stroke-miterlimit="10"/>
<path d="M173.661 86.7401L175.882 87.0781C175.882 87.0781 175.511 88.5228 174.502 88.368C173.493 88.2132 173.661 86.7401 173.661 86.7401Z" fill="white"/>
<path d="M177.708 80.987C177.988 81.0156 178.254 81.1179 178.481 81.2834C178.707 81.4488 178.886 81.6715 178.998 81.9286" stroke="#8E3332" stroke-width="0.515972" stroke-miterlimit="10"/>
<path d="M174.076 80.293C174.076 80.293 175.017 80.0686 175.714 80.551" stroke="#8E3332" stroke-width="0.515972" stroke-miterlimit="10"/>
<path d="M180.59 84.8774C180.59 84.8774 181.622 84.9574 181.759 85.832" stroke="#8E3332" stroke-width="0.515972" stroke-miterlimit="10"/>
<path d="M126.726 69.7981C126.726 69.7981 126.45 95.0498 119.448 94.9647C111.541 94.8692 120.596 68.7198 120.596 68.7198C120.596 68.7198 124.223 67.2905 126.726 69.7981Z" fill="#80C2C1"/>
<path d="M97.4414 93.8553C97.4414 93.8553 120.48 82.5788 122.982 89.1187C126.377 97.9986 99.7633 101.422 99.7633 101.422C95.5788 101.541 94.4772 96.0998 97.4414 93.8553Z" fill="#FFAA40"/>
<path d="M113.718 125.652C113.718 125.652 113.367 97.8283 105.695 93.8683C101.296 91.598 92.1919 92.2146 87.5481 95.3517C82.8631 98.5172 86.1679 125.652 86.1679 125.652H113.718Z" fill="#FFAA40"/>
<path d="M121.199 69.6562C121.199 69.6562 120.371 68.3328 120.407 67.0583C120.444 65.7839 120.629 64.9299 119.922 63.6116C119.215 62.2933 120.784 61.749 121.346 62.9202C121.909 64.0915 122.528 66.0728 123.72 64.9274C124.912 63.7819 124.579 59.5716 126.955 60.7015C126.955 60.7015 127.275 58.7873 128.106 59.0221C128.936 59.2568 128.653 60.9957 128.653 60.9957C128.653 60.9957 130.786 60.0643 129.28 64.3495C129.28 64.3495 130.376 64.4656 130.195 65.3324C129.904 66.7204 128.044 69.2951 126.042 70.8404C122.786 73.3454 121.199 69.6562 121.199 69.6562Z" fill="#FB8A60"/>
<path d="M126.954 60.699C126.954 60.699 127.06 61.847 125.192 65.5362" stroke="#E56542" stroke-width="0.257986" stroke-miterlimit="10"/>
<path d="M128.653 60.9931C128.653 60.9931 127.827 64.1224 126.671 65.9851" stroke="#E56542" stroke-width="0.257986" stroke-miterlimit="10"/>
<path d="M129.28 64.3469C129.28 64.3469 128.449 65.789 127.732 66.9035" stroke="#E56542" stroke-width="0.257986" stroke-miterlimit="10"/>
<path d="M70.5377 199.039L78.2772 206.853C78.5201 207.099 78.6705 207.422 78.703 207.766C78.7354 208.11 78.6479 208.455 78.4552 208.742C78.2331 209.07 77.8896 209.297 77.5002 209.373C77.1107 209.448 76.7073 209.366 76.3785 209.144L63.6675 200.569L66.7633 196.547L70.5377 199.039Z" fill="#1C5276"/>
<path d="M67.6899 199.938L67.2771 199.66C66.8329 199.36 66.526 198.897 66.4238 198.371C66.3215 197.845 66.4324 197.3 66.732 196.856L68.9176 193.615L72.6819 196.154L70.4977 199.392C70.1981 199.837 69.7344 200.144 69.2085 200.246C68.6826 200.348 68.1376 200.237 67.6935 199.938L67.6899 199.938Z" fill="#FB855F"/>
<path d="M106.549 206.004L117.332 208.159C117.671 208.226 117.977 208.409 118.196 208.676C118.415 208.943 118.535 209.278 118.535 209.624C118.535 210.02 118.377 210.4 118.097 210.68C117.817 210.96 117.437 211.118 117.041 211.118H101.693L102.003 206.059L106.549 206.004Z" fill="#1C5276"/>
<path d="M104.678 208.344H104.188C103.652 208.344 103.138 208.132 102.76 207.753C102.381 207.374 102.168 206.86 102.168 206.324V202.416H106.701V206.322C106.701 206.588 106.649 206.851 106.547 207.096C106.446 207.342 106.297 207.565 106.109 207.753C105.921 207.941 105.698 208.09 105.452 208.191C105.207 208.293 104.944 208.345 104.678 208.344Z" fill="#FB855F"/>
<path d="M122.329 111.035C122.329 111.035 102.315 126.429 98.045 120.864C93.2336 114.592 119.386 105.542 119.386 105.542C119.386 105.542 122.755 107.516 122.329 111.035Z" fill="#FFAA40"/>
<path d="M94.1653 97.0647C94.1653 97.0647 109.056 117.949 103.017 121.483C94.8102 126.284 87.081 100.599 87.081 100.599C86.2735 96.4868 91.459 94.508 94.1653 97.0647Z" fill="#FFAA40"/>
<path d="M106.672 170.552C108.272 170.553 109.813 169.941 110.976 168.842C112.14 167.743 112.838 166.24 112.928 164.642C113.702 150.597 114.045 136.206 113.717 125.652H100.005C100.439 137.674 100.547 151.665 100.408 164.218C100.398 165.047 100.553 165.869 100.864 166.637C101.174 167.406 101.634 168.104 102.217 168.694C102.8 169.283 103.493 169.75 104.258 170.069C105.023 170.388 105.843 170.552 106.672 170.552Z" fill="#5F6386"/>
<path d="M106.677 158.476C107.528 158.475 108.37 158.649 109.151 158.986C109.933 159.323 110.637 159.816 111.221 160.436C111.804 161.055 112.255 161.787 112.545 162.587C112.835 163.388 112.958 164.238 112.907 165.088C112.185 177.195 111.153 194.888 110.616 202.651H100.005C100.428 193.807 100.299 175.676 100.436 164.639C100.457 162.997 101.123 161.43 102.291 160.276C103.459 159.122 105.035 158.476 106.677 158.476Z" fill="#5F6386"/>
<path d="M92.839 170.552C94.4394 170.553 95.9795 169.941 97.1426 168.842C98.3057 167.743 99.0035 166.24 99.0926 164.642C99.8665 150.597 100.212 136.206 99.882 125.652H86.1675C86.6009 137.674 86.7067 151.665 86.5699 164.218C86.5604 165.047 86.7155 165.87 87.0264 166.639C87.3372 167.407 87.7976 168.106 88.3808 168.695C88.964 169.285 89.6584 169.752 90.4237 170.071C91.189 170.39 92.01 170.553 92.839 170.552Z" fill="#5F6386"/>
<path d="M96.3501 159.115C97.0556 159.591 97.6563 160.207 98.1154 160.923C98.5744 161.64 98.8821 162.443 99.0196 163.282C99.1571 164.122 99.1214 164.981 98.9148 165.807C98.7082 166.632 98.3349 167.407 97.818 168.083C90.4474 177.714 79.6971 191.818 74.9114 197.94L66.1167 192.006C71.4106 184.909 81.4437 169.819 87.7282 160.733C88.6639 159.384 90.0934 158.458 91.7072 158.155C93.3209 157.852 94.989 158.197 96.3501 159.115Z" fill="#5F6386"/>
<path d="M97.5179 97.364C100.42 97.364 101.741 93.9715 100.962 93.1923C100.729 92.9457 100.543 92.6579 100.415 92.3436C100.219 91.873 100.086 91.3785 100.02 90.873L94.6569 86.0874C94.9458 89.1342 93.643 91.2729 93.1683 92.795C92.6936 94.3172 94.2209 97.364 97.5179 97.364Z" fill="#FB855F"/>
<path d="M95.5991 89.6889C97.147 92.6299 100.328 92.3384 100.418 92.3436C100.222 91.873 100.09 91.3785 100.024 90.873C99.8765 90.7879 94.1647 86.9413 95.5991 89.6889Z" fill="#E56542"/>
<path d="M89.3511 80.6104C89.3511 80.6104 89.5807 83.3914 93.6259 86.2551C97.8646 89.2606 93.0377 80.0273 93.0377 80.0273L89.3511 80.6104Z" fill="#8E3332"/>
<path d="M100.39 78.9438C100.39 78.9438 100.96 81.3404 101.703 84.0312C102.764 87.8752 102.856 90.984 98.9376 90.984C92.359 90.984 92.7976 80.0686 92.7976 80.0686L100.39 78.9438Z" fill="#FB855F"/>
<path d="M92.1731 82.9838C91.1412 83.4069 91.8558 86.0435 94.1132 86.3015C95.8546 86.5001 93.7675 82.3311 92.1731 82.9838Z" fill="#FB855F"/>
<path d="M111.545 118.173C111.545 118.173 103.909 123.993 99.3761 121.785C94.8433 119.577 90.2124 109.087 90.2124 109.087" stroke="#F15A29" stroke-width="0.515972" stroke-miterlimit="10"/>
<path d="M108.956 109.843C108.956 109.843 102.643 112.755 100.873 114.52" stroke="#F15A29" stroke-width="0.515972" stroke-miterlimit="10"/>
<path d="M103.14 112.89C103.14 112.89 100.615 107.322 99.2397 105.031" stroke="#F15A29" stroke-width="0.515972" stroke-miterlimit="10"/>
<path d="M116.274 87.2715C116.274 87.2715 117.466 88.1693 117.9 89.2761" stroke="#50A5A0" stroke-width="0.515972" stroke-miterlimit="10"/>
<path d="M111.13 103.661C111.13 103.661 109.902 97.738 107.322 95.1711" stroke="#F15A29" stroke-width="0.515972" stroke-miterlimit="10"/>
<path d="M105.353 139.158L94.8584 137.138L98.0884 125.632L102.528 125.43L105.353 139.158Z" fill="#5F6386"/>
<path d="M101.048 125.812L102.573 135.053L98.7158 136.668" stroke="#30354F" stroke-width="0.515972" stroke-miterlimit="10"/>
<path d="M89.3404 125.766L89.6087 164.523L68.9233 193.619" stroke="#30354F" stroke-width="0.515972" stroke-miterlimit="10"/>
<path d="M112.622 125.833L109.392 202.339" stroke="#30354F" stroke-width="0.515972" stroke-miterlimit="10"/>
<path d="M77.6332 194.712L74.9114 197.94L66.1167 192.009L68.841 188.255L77.6332 194.712Z" fill="#494E6D"/>
<path d="M111.096 197.764L100.33 197.942L100.005 202.651H110.614L111.096 197.764Z" fill="#494E6D"/>
<path d="M89.3514 80.6103C91.9043 81.271 94.5801 81.2967 97.1452 80.6852C101.531 79.6738 102.798 75.6389 102.798 75.6389C102.798 75.6389 98.626 77.2514 94.9936 77.1869C91.3611 77.1224 88.9567 78.7193 89.3514 80.6103Z" fill="#8E3332"/>
<path d="M97.01 84.2841C97.2636 84.2841 97.4692 84.0785 97.4692 83.8248C97.4692 83.5712 97.2636 83.3656 97.01 83.3656C96.7564 83.3656 96.5508 83.5712 96.5508 83.8248C96.5508 84.0785 96.7564 84.2841 97.01 84.2841Z" fill="#8E3332"/>
<path d="M100.259 83.4946C100.513 83.4946 100.718 83.289 100.718 83.0354C100.718 82.7818 100.513 82.5762 100.259 82.5762C100.005 82.5762 99.7998 82.7818 99.7998 83.0354C99.7998 83.289 100.005 83.4946 100.259 83.4946Z" fill="#8E3332"/>
<path d="M99.3503 85.3263C99.3334 85.4792 99.3633 85.6336 99.4361 85.769C99.5089 85.9045 99.6211 86.0146 99.7579 86.0848C100.238 86.3299 99.8405 86.7607 99.4045 86.5647" stroke="#8E3332" stroke-width="0.515972" stroke-miterlimit="10"/>
<path d="M100.779 87.772L98.5581 88.1074C98.5581 88.1074 98.9296 89.5547 99.9383 89.3973C100.947 89.24 100.779 87.772 100.779 87.772Z" fill="white"/>
<path d="M96.7445 82.019C96.4651 82.0468 96.1983 82.1488 95.9715 82.3143C95.7447 82.4799 95.5663 82.703 95.4546 82.9606" stroke="#8E3332" stroke-width="0.515972" stroke-miterlimit="10"/>
<path d="M100.766 81.3017C100.766 81.3017 99.8248 81.0773 99.1309 81.5597" stroke="#8E3332" stroke-width="0.515972" stroke-miterlimit="10"/>
<path d="M96.7214 85.7778C97.7188 85.7778 98.5273 84.9693 98.5273 83.9719C98.5273 82.9745 97.7188 82.166 96.7214 82.166C95.7241 82.166 94.9155 82.9745 94.9155 83.9719C94.9155 84.9693 95.7241 85.7778 96.7214 85.7778Z" stroke="#8E3332" stroke-width="0.257986" stroke-miterlimit="10"/>
<path d="M100.865 84.8671C101.862 84.8671 102.671 84.0586 102.671 83.0612C102.671 82.0638 101.862 81.2553 100.865 81.2553C99.8676 81.2553 99.0591 82.0638 99.0591 83.0612C99.0591 84.0586 99.8676 84.8671 100.865 84.8671Z" stroke="#8E3332" stroke-width="0.257986" stroke-miterlimit="10"/>
<path d="M99.1646 83.443L98.5352 83.6236" stroke="#8E3332" stroke-width="0.257986" stroke-miterlimit="10"/>
<path d="M111.31 91.1826L146.969 116.744L187.702 39.041L158.491 26.6758L139.959 84.4389L120.378 69.0809L111.31 91.1826Z" fill="#04D1CD"/>
<path d="M119.578 105.79C119.578 105.79 120.035 104.296 121.021 103.486C122.006 102.676 122.775 102.258 123.306 100.862C123.838 99.4665 125.277 100.292 124.761 101.484C124.245 102.676 123.157 104.443 124.803 104.58C126.449 104.717 129.41 101.719 130.115 104.255C130.115 104.255 131.771 103.241 132.135 104.023C132.498 104.804 131.005 105.73 131.005 105.73C131.005 105.73 133.107 106.731 128.884 108.401C128.884 108.401 129.516 109.306 128.739 109.737C127.501 110.426 124.338 110.71 121.859 110.209C117.829 109.407 119.578 105.79 119.578 105.79Z" fill="#FD8B66"/>
<path d="M130.115 104.265C130.115 104.265 129.318 105.098 125.306 106.107" stroke="#E56542" stroke-width="0.257986" stroke-miterlimit="10"/>
<path d="M131.005 105.741C131.005 105.741 128.1 107.167 125.938 107.516" stroke="#E56542" stroke-width="0.257986" stroke-miterlimit="10"/>
<path d="M128.884 108.411C128.884 108.411 127.249 108.728 125.943 108.927" stroke="#E56542" stroke-width="0.257986" stroke-miterlimit="10"/>
<path d="M92.5421 87.2303C93.7389 87.2303 94.7092 86.26 94.7092 85.0632C94.7092 83.8663 93.7389 82.8961 92.5421 82.8961C91.3452 82.8961 90.375 83.8663 90.375 85.0632C90.375 86.26 91.3452 87.2303 92.5421 87.2303Z" fill="#FB855F"/>
<path d="M243.209 211.549C243.209 211.549 241.991 137.741 265.21 134.32C288.429 130.9 249.808 211.549 249.808 211.549H243.209Z" fill="#5F6386"/>
<path d="M265.449 140.187C265.449 140.187 247.364 188.09 246.634 211.309" stroke="#30354F" stroke-width="0.515972" stroke-miterlimit="10"/>
<path d="M254.207 148.577L258.608 159.495L268.058 153.953" stroke="#30354F" stroke-width="0.515972" stroke-miterlimit="10"/>
<path d="M248.83 168.292L253.066 177.745L262.681 172.041" stroke="#30354F" stroke-width="0.515972" stroke-miterlimit="10"/>
<path d="M245.084 188.172L248.343 197.132L256.49 191.103" stroke="#30354F" stroke-width="0.515972" stroke-miterlimit="10"/>
<path d="M241.544 211.549C241.544 211.549 242.318 166.53 227.613 164.443C212.907 162.356 237.367 211.549 237.367 211.549H241.544Z" fill="#9FA3BF"/>
<path d="M227.469 168.024C227.469 168.024 238.913 197.243 239.378 211.404" stroke="#30354F" stroke-width="0.515972" stroke-miterlimit="10"/>
<path d="M234.584 173.142L231.8 179.801L225.82 176.421" stroke="#30354F" stroke-width="0.515972" stroke-miterlimit="10"/>
<path d="M237.987 185.167L235.306 190.933L229.223 187.453" stroke="#30354F" stroke-width="0.515972" stroke-miterlimit="10"/>
<path d="M240.357 197.292L238.296 202.759L233.142 199.08" stroke="#30354F" stroke-width="0.515972" stroke-miterlimit="10"/>
<path d="M44.4017 211.064C44.4017 211.064 43.6716 166.979 57.5306 164.936C71.3896 162.892 48.3334 211.064 48.3334 211.064H44.4017Z" fill="#5F6386"/>
<path d="M57.6852 168.439C57.6852 168.439 46.8833 197.05 46.437 210.919" stroke="#30354F" stroke-width="0.515972" stroke-miterlimit="10"/>
<path d="M50.9707 173.449L53.5996 179.971L59.2443 176.661" stroke="#30354F" stroke-width="0.515972" stroke-miterlimit="10"/>
<path d="M47.7612 185.226L50.2895 190.871L56.0323 187.463" stroke="#30354F" stroke-width="0.515972" stroke-miterlimit="10"/>
<path d="M45.521 197.099L47.4662 202.452L52.3318 198.851" stroke="#30354F" stroke-width="0.515972" stroke-miterlimit="10"/>
<path d="M43.4058 211.064C43.4058 211.064 43.8573 184.176 35.0858 182.928C26.3142 181.679 40.9059 211.064 40.9059 211.064H43.4058Z" fill="#9FA3BF"/>
<path d="M35.0015 185.066C35.0015 185.066 41.8381 202.517 42.1141 210.976" stroke="#30354F" stroke-width="0.515972" stroke-miterlimit="10"/>
<path d="M39.2497 188.123L37.5882 192.099L34.0151 190.082" stroke="#30354F" stroke-width="0.515972" stroke-miterlimit="10"/>
<path d="M41.2834 195.306L39.6813 198.747L36.0488 196.671" stroke="#30354F" stroke-width="0.515972" stroke-miterlimit="10"/>
<path d="M42.6986 202.547L41.4681 205.811L38.3877 203.616" stroke="#30354F" stroke-width="0.515972" stroke-miterlimit="10"/>
<path d="M57.2909 134.238C57.2909 134.161 57.2909 134.083 57.2909 134.003C57.2909 133.923 57.2909 133.908 57.3038 133.861C57.3038 133.882 57.2806 134.006 57.3038 133.89C57.3382 133.709 57.383 133.531 57.438 133.356C57.4663 133.273 57.4973 133.193 57.5283 133.113C57.5592 133.033 57.5283 133.098 57.5283 133.113C57.5489 133.064 57.5721 133.015 57.5953 132.966C57.6786 132.79 57.7707 132.617 57.8714 132.45C58.2863 131.767 58.8021 131.15 59.4012 130.621C60.0093 130.047 60.6871 129.552 61.4187 129.148C61.5812 129.055 61.7463 128.967 61.9166 128.89C62.0017 128.846 62.0894 128.807 62.1746 128.766C62.203 128.753 62.3216 128.704 62.203 128.753L62.3578 128.691C62.6911 128.557 63.0367 128.455 63.3897 128.387L63.4826 128.371C63.6451 128.346 63.3381 128.384 63.4981 128.371C63.5729 128.371 63.6451 128.356 63.7199 128.353C63.8611 128.351 64.0024 128.356 64.143 128.369C63.9392 128.353 64.143 128.369 64.2075 128.387C64.272 128.405 64.3313 128.423 64.3907 128.441C64.5558 128.487 64.3004 128.376 64.4423 128.467C64.5068 128.505 64.5687 128.542 64.6306 128.583C64.4655 128.475 64.6306 128.583 64.6693 128.627C64.708 128.671 64.8215 128.831 64.7157 128.668L64.8215 128.836L64.8576 128.911C64.917 129.016 64.8215 128.776 64.8576 128.934C64.9066 129.083 64.9454 129.236 64.9737 129.39C64.9918 129.494 64.9737 129.23 64.9737 129.39V129.501C64.9737 129.617 64.9737 129.733 64.9737 129.852C64.9797 130.302 64.8918 130.749 64.7157 131.163L64.659 131.261C64.5713 131.408 64.7441 131.183 64.6306 131.297L64.5635 131.367C64.4578 131.475 64.6409 131.31 64.5635 131.367C64.5329 131.388 64.5 131.406 64.4655 131.421C64.6022 131.351 64.5248 131.395 64.4784 131.408C64.432 131.421 64.3391 131.421 64.499 131.408H64.3675C64.1946 131.408 64.432 131.444 64.2591 131.392C64.1791 131.367 64.0966 131.346 64.0192 131.315C64.1559 131.367 63.9082 131.258 63.8747 131.24C63.7715 131.183 63.6735 131.121 63.5754 131.054C63.2552 130.819 62.9603 130.551 62.6957 130.255C62.3924 129.928 62.1323 129.564 61.9218 129.171C61.6032 128.596 61.3917 127.967 61.2974 127.316C61.1143 125.977 61.7205 124.814 62.7963 124.022C62.9401 123.932 63.0442 123.791 63.0874 123.627C63.1305 123.463 63.1095 123.288 63.0285 123.139C62.9409 122.993 62.7995 122.887 62.6347 122.844C62.4698 122.8 62.2945 122.823 62.1462 122.907C60.8795 123.839 59.992 125.131 59.9765 126.746C59.9885 128.071 60.4152 129.358 61.1968 130.427C61.7876 131.243 62.5435 132.061 63.48 132.473C63.922 132.701 64.4338 132.751 64.9118 132.615C65.1714 132.511 65.4043 132.35 65.5936 132.145C65.7829 131.939 65.9237 131.693 66.0057 131.426C66.3805 130.426 66.3713 129.323 65.9799 128.33C65.8123 127.98 65.5555 127.68 65.2354 127.46C64.9152 127.241 64.543 127.109 64.1559 127.079C63.3586 127.025 62.5603 127.171 61.834 127.504C60.9084 127.892 60.0403 128.405 59.2542 129.029C57.6882 130.247 55.9597 132.112 55.9649 134.228C55.9649 135.058 57.2548 135.061 57.2548 134.228L57.2909 134.238Z" fill="#9FA3BF"/>
<path d="M216.569 114.76C216.569 114.68 216.569 114.603 216.569 114.523L216.584 114.381C216.584 114.401 216.558 114.528 216.584 114.409C216.619 114.229 216.663 114.05 216.718 113.875C216.744 113.795 216.775 113.713 216.806 113.633C216.837 113.553 216.806 113.617 216.806 113.633C216.827 113.584 216.85 113.535 216.873 113.486C216.956 113.309 217.048 113.137 217.149 112.97C217.563 112.286 218.079 111.669 218.679 111.14C219.287 110.567 219.963 110.072 220.694 109.667C220.859 109.577 221.024 109.489 221.194 109.409C221.279 109.365 221.367 109.327 221.452 109.288C221.481 109.273 221.599 109.224 221.481 109.273L221.633 109.211C221.966 109.076 222.312 108.975 222.665 108.909L222.758 108.891C222.918 108.865 222.613 108.891 222.758 108.891C222.833 108.891 222.907 108.875 222.982 108.873C223.123 108.87 223.265 108.875 223.405 108.888C223.201 108.873 223.405 108.888 223.47 108.906C223.534 108.924 223.591 108.945 223.653 108.96C223.818 109.007 223.56 108.896 223.705 108.986C223.769 109.025 223.831 109.061 223.893 109.102C223.728 108.994 223.893 109.102 223.929 109.146C223.965 109.19 224.084 109.353 223.975 109.19C224.014 109.244 224.048 109.301 224.081 109.358C224.115 109.414 224.107 109.407 224.12 109.43C224.179 109.536 224.084 109.296 224.12 109.453C224.168 109.604 224.207 109.757 224.236 109.912C224.254 110.013 224.223 109.75 224.236 109.912C224.236 109.949 224.236 109.985 224.236 110.021C224.236 110.137 224.236 110.256 224.236 110.372C224.241 110.822 224.153 111.268 223.978 111.682C223.957 111.716 223.939 111.749 223.919 111.78C223.831 111.927 224.004 111.703 223.893 111.816L223.823 111.886C223.72 111.994 223.903 111.829 223.823 111.886C223.793 111.906 223.761 111.924 223.728 111.938C223.865 111.868 223.787 111.912 223.728 111.925C223.668 111.938 223.591 111.938 223.751 111.925H223.617C223.447 111.925 223.684 111.961 223.511 111.909C223.429 111.883 223.349 111.863 223.269 111.832C223.408 111.886 223.16 111.775 223.127 111.757C223.023 111.703 222.925 111.638 222.827 111.574C222.508 111.337 222.213 111.068 221.948 110.771C221.644 110.445 221.384 110.081 221.174 109.688C220.855 109.112 220.644 108.484 220.549 107.833C220.364 106.494 220.972 105.331 222.048 104.539C222.192 104.449 222.296 104.307 222.339 104.143C222.382 103.979 222.361 103.805 222.28 103.656C222.193 103.51 222.052 103.404 221.887 103.36C221.722 103.317 221.546 103.34 221.398 103.424C220.131 104.355 219.244 105.648 219.226 107.263C219.24 108.587 219.668 109.875 220.449 110.944C221.04 111.76 221.795 112.58 222.732 112.993C223.174 113.218 223.684 113.268 224.161 113.132C224.421 113.029 224.655 112.868 224.844 112.662C225.033 112.456 225.174 112.21 225.255 111.943C225.632 110.944 225.623 109.84 225.229 108.847C225.062 108.497 224.806 108.197 224.486 107.977C224.166 107.758 223.795 107.626 223.408 107.596C222.611 107.542 221.812 107.688 221.086 108.021C220.161 108.411 219.293 108.924 218.506 109.546C216.943 110.764 215.214 112.629 215.217 114.747C215.217 115.575 216.507 115.578 216.507 114.747L216.569 114.76Z" fill="#9FA3BF"/>
<path d="M123.42 146.469C123.989 144.821 124.888 143.307 126.062 142.019C126.614 141.374 127.29 140.847 128.051 140.471L128.082 140.455C128.132 140.433 128.183 140.413 128.234 140.396C128.327 140.363 128.42 140.332 128.516 140.306C128.611 140.28 128.681 140.264 128.774 140.246L128.897 140.223C128.774 140.241 128.954 140.223 128.98 140.223C129.17 140.207 129.361 140.211 129.55 140.236C129.45 140.221 129.656 140.259 129.697 140.27C129.816 140.298 129.934 140.334 130.048 140.378C130.41 140.538 130.743 140.757 131.034 141.026C131.222 141.203 131.398 141.393 131.562 141.593C131.449 141.454 131.588 141.64 131.609 141.67C131.658 141.748 131.702 141.828 131.743 141.91C131.761 141.947 131.838 142.127 131.787 141.998C131.818 142.076 131.846 142.153 131.872 142.233C131.93 142.402 131.978 142.574 132.016 142.749C132.035 142.826 132.047 142.904 132.06 142.981C132.06 142.981 132.089 143.169 132.076 143.071C132.063 142.973 132.076 143.115 132.076 143.133C132.094 143.319 132.107 143.502 132.107 143.688C132.111 143.864 132.105 144.039 132.089 144.214C132.107 144.07 132.089 144.256 132.068 144.299C132.053 144.38 132.032 144.459 132.006 144.537C132.006 144.568 131.986 144.596 131.978 144.627C131.931 144.769 132.024 144.537 131.978 144.627L131.885 144.795C131.838 144.872 131.975 144.72 131.862 144.818C131.748 144.916 131.957 144.792 131.813 144.854C131.743 144.885 131.952 144.826 131.774 144.854C131.851 144.839 131.846 144.854 131.725 144.854C131.604 144.854 131.748 144.854 131.764 144.854L131.671 144.836L131.55 144.8C131.426 144.764 131.534 144.8 131.493 144.777C131.159 144.62 130.868 144.383 130.647 144.088C130.552 143.958 130.484 143.811 130.448 143.654C130.387 143.468 130.362 143.272 130.376 143.077C130.388 142.663 130.471 142.255 130.621 141.869C130.93 141.056 131.401 140.314 132.006 139.689C132.146 139.544 132.295 139.406 132.45 139.276C132.45 139.276 132.545 139.199 132.465 139.261L132.561 139.191C132.638 139.137 132.718 139.085 132.798 139.039L133.017 138.928C132.886 138.99 133.048 138.928 133.095 138.902C133.252 138.85 133.412 138.809 133.575 138.778L133.68 138.76C133.789 138.742 133.523 138.776 133.701 138.76L133.926 138.74C134.114 138.74 134.302 138.74 134.488 138.74C134.674 138.74 134.841 138.76 135.004 138.778C135.136 138.794 135.316 138.822 135.543 138.869C135.947 138.95 136.346 139.056 136.738 139.186C137.112 139.308 137.478 139.452 137.834 139.62C138.217 139.8 138.59 140.002 138.951 140.223C139.271 140.419 139.577 140.637 139.867 140.876C140.426 141.305 140.879 141.858 141.188 142.491C141.203 142.522 141.247 142.638 141.188 142.512L141.227 142.615C141.247 142.682 141.27 142.749 141.291 142.816C141.312 142.883 141.33 142.986 141.348 143.074C141.348 143.105 141.363 143.2 141.348 143.058C141.348 143.11 141.348 143.162 141.348 143.213C141.348 143.265 141.348 143.35 141.348 143.42C141.348 143.489 141.348 143.489 141.348 143.523C141.348 143.693 141.366 143.43 141.348 143.523C141.319 143.692 141.275 143.858 141.214 144.018C141.214 144.041 141.165 144.129 141.214 144.018C141.198 144.052 141.183 144.088 141.165 144.121C141.113 144.217 141.061 144.307 141.005 144.4C140.954 144.482 140.898 144.56 140.837 144.635C140.803 144.676 140.602 144.857 140.685 144.797C140.656 144.821 140.625 144.836 140.594 144.857L140.548 144.882C140.62 144.854 140.633 144.846 140.589 144.862C140.545 144.877 140.463 144.924 140.566 144.877C140.669 144.831 140.566 144.877 140.522 144.877C140.662 144.877 140.569 144.9 140.489 144.857C140.695 144.97 140.349 144.72 140.504 144.857C140.448 144.806 140.394 144.751 140.344 144.694C140.275 144.617 140.427 144.818 140.329 144.673L140.264 144.575C140.22 144.508 140.182 144.439 140.143 144.369C140.104 144.299 140.019 144.111 140.05 144.176C139.894 143.791 139.783 143.389 139.72 142.978C139.702 142.857 139.735 143.131 139.72 142.927C139.72 142.883 139.72 142.842 139.72 142.8C139.72 142.721 139.72 142.638 139.707 142.558C139.694 142.478 139.707 142.388 139.707 142.3C139.707 142.256 139.707 142.215 139.707 142.171C139.694 142.341 139.707 142.109 139.728 142.06C139.808 141.586 139.975 141.131 140.22 140.719C140.69 139.983 141.396 139.43 142.222 139.15C142.682 138.982 143.159 138.864 143.644 138.799C143.814 138.795 143.975 138.725 144.095 138.605C144.215 138.485 144.284 138.324 144.289 138.154C144.288 137.984 144.219 137.82 144.098 137.7C143.978 137.579 143.815 137.511 143.644 137.509C142.393 137.672 141.193 138.041 140.192 138.833C139.27 139.579 138.656 140.639 138.466 141.81C138.331 142.805 138.483 143.818 138.905 144.73C139.248 145.52 139.952 146.386 140.922 146.116C141.892 145.845 142.47 144.684 142.615 143.794C142.723 142.942 142.517 142.081 142.034 141.371C140.979 139.738 139.127 138.675 137.339 138.03C135.76 137.465 133.673 137.053 132.127 137.935C131.248 138.435 130.549 139.294 130.025 140.143C129.457 141.064 128.993 142.192 129.07 143.293C129.103 143.838 129.281 144.364 129.584 144.817C129.887 145.27 130.306 145.635 130.796 145.873C131.604 146.283 132.538 146.188 133.02 145.357C133.42 144.666 133.435 143.778 133.337 143.007C133.257 142.103 132.907 141.245 132.331 140.543C132.014 140.113 131.614 139.751 131.155 139.478C130.696 139.205 130.186 139.028 129.657 138.956C129.128 138.883 128.589 138.918 128.074 139.058C127.558 139.198 127.076 139.44 126.656 139.769C124.878 140.971 123.56 142.896 122.672 144.823C122.477 145.243 122.305 145.674 122.156 146.113C121.898 146.902 123.137 147.24 123.4 146.456L123.42 146.469Z" fill="#E84D2E"/>
<path d="M114.785 36.5205C114.005 36.3445 113.189 36.4306 112.463 36.7656C111.863 37.0801 111.368 37.5635 111.039 38.1561C110.388 39.3349 110.187 40.7102 110.474 42.0259C110.732 43.1869 111.578 44.2859 112.889 44.0382C113.184 43.9982 113.459 43.8694 113.679 43.6689C113.899 43.4685 114.053 43.2059 114.12 42.916C114.158 42.6234 114.135 42.326 114.052 42.0428C113.97 41.7595 113.829 41.4964 113.64 41.27C112.786 40.1297 111.282 39.5673 109.953 40.2226C109.112 40.6406 108.529 41.4945 108.147 42.3278C107.705 43.3368 107.451 44.4185 107.399 45.5191C107.293 46.6408 107.452 47.7716 107.861 48.8213C108.241 49.6345 108.827 50.3343 109.561 50.8516C110.394 51.4424 111.413 51.3676 111.965 50.4466C112.383 49.7552 112.605 48.7465 112.247 47.988C111.628 46.6671 109.775 46.9328 108.653 47.2734C107.226 47.7094 105.707 48.5117 104.76 49.6959C104.526 49.9818 104.338 50.302 104.203 50.6453C104.158 50.8101 104.18 50.9859 104.264 51.1346C104.348 51.2832 104.487 51.3929 104.652 51.4398C104.817 51.4815 104.992 51.4579 105.14 51.3737C105.288 51.2896 105.397 51.1516 105.446 50.9884C105.379 51.1535 105.446 50.9884 105.472 50.9394C105.498 50.8903 105.531 50.831 105.562 50.7768C105.593 50.7226 105.624 50.6839 105.655 50.6375C105.686 50.5911 105.694 50.5833 105.712 50.5575C105.73 50.5317 105.64 50.6401 105.712 50.5575C105.899 50.3356 106.105 50.1294 106.326 49.9409C106.417 49.8602 106.512 49.7852 106.612 49.7165C106.744 49.621 106.87 49.5307 107.017 49.443C107.299 49.2657 107.59 49.1046 107.889 48.9606C107.964 48.9219 108.039 48.8884 108.116 48.8522L108.248 48.7955C108.398 48.7336 108.55 48.6742 108.705 48.6226C108.997 48.5165 109.296 48.4304 109.6 48.3647C109.672 48.3492 109.744 48.3363 109.816 48.326C109.997 48.2924 109.798 48.326 109.904 48.3131C110.01 48.3002 110.162 48.2898 110.301 48.2898C110.363 48.2898 110.425 48.2898 110.487 48.2898C110.549 48.2898 110.681 48.3156 110.536 48.2898C110.65 48.3105 110.758 48.3414 110.872 48.3698C110.985 48.3982 110.786 48.3156 110.872 48.3698C110.911 48.3988 110.953 48.423 110.998 48.4421C111.093 48.4782 110.877 48.3543 110.998 48.4421C111.119 48.5298 111.05 48.5272 111.021 48.4575C111.037 48.4953 111.058 48.5309 111.083 48.5633C111.119 48.6046 111.065 48.4472 111.083 48.5814C111.083 48.633 111.106 48.6871 111.117 48.7362C111.083 48.5814 111.117 48.7362 111.117 48.8032C111.117 48.8703 111.117 48.9167 111.117 48.9709C111.117 49.0896 111.117 48.9709 111.117 48.9529C111.117 48.989 111.117 49.0251 111.099 49.0612C111.061 49.2473 111.007 49.4295 110.936 49.6056C110.88 49.7455 110.792 49.8702 110.678 49.9693C110.75 49.8919 110.701 49.9538 110.678 49.9693C110.704 49.9693 110.789 49.9126 110.678 49.9693C110.657 49.9693 110.539 50.0029 110.701 49.9693C110.681 49.9693 110.536 49.9693 110.632 49.9693C110.727 49.9693 110.539 49.9409 110.51 49.9306C110.394 49.8919 110.482 49.9177 110.51 49.9306L110.407 49.8739C110.276 49.8047 110.156 49.7179 110.049 49.6159C109.925 49.5024 109.806 49.3837 109.693 49.2573C109.633 49.1928 109.577 49.1257 109.52 49.0586L109.44 48.9606C109.368 48.8729 109.44 48.9761 109.411 48.9245C108.964 48.315 108.709 47.5853 108.681 46.8296C108.606 45.9276 108.669 45.0194 108.867 44.1363C109.042 43.3303 109.395 42.5738 109.902 41.9227C110.013 41.792 110.135 41.6704 110.265 41.559C110.322 41.51 110.265 41.559 110.252 41.559L110.345 41.4945C110.413 41.448 110.484 41.4058 110.557 41.3681L110.652 41.3191C110.737 41.2778 110.552 41.3552 110.652 41.3191C110.753 41.2829 110.776 41.2752 110.843 41.2597C110.91 41.2442 110.952 41.2339 111.008 41.2236C110.838 41.2571 111.042 41.2236 111.096 41.2236C111.15 41.2236 111.22 41.2236 111.282 41.2236H111.375C111.465 41.2236 111.251 41.2004 111.339 41.2236C111.468 41.252 111.597 41.2855 111.715 41.3242L111.78 41.35C111.862 41.381 111.671 41.2984 111.751 41.35L111.914 41.43C112.026 41.4927 112.133 41.5625 112.236 41.639C112.1 41.5383 112.347 41.7396 112.394 41.786L112.5 41.8944C112.533 41.9305 112.675 42.1111 112.564 41.9614C112.624 42.0444 112.68 42.1305 112.732 42.2194C112.755 42.2581 112.773 42.2994 112.796 42.3381C112.881 42.4903 112.776 42.2297 112.819 42.3923C112.819 42.431 112.843 42.4697 112.853 42.5109C112.863 42.5522 112.889 42.7019 112.871 42.5729C112.853 42.4439 112.871 42.5883 112.871 42.6167C112.869 42.6373 112.869 42.6581 112.871 42.6786C112.902 42.7689 112.892 42.5367 112.871 42.6296C112.86 42.6616 112.851 42.6944 112.845 42.7277C112.845 42.7096 112.923 42.5935 112.845 42.707C112.768 42.8205 112.948 42.5883 112.845 42.6941C112.742 42.7999 112.876 42.6503 112.845 42.6941C112.814 42.738 112.693 42.7818 112.799 42.7277C112.905 42.6735 112.737 42.7483 112.711 42.756C112.685 42.7638 112.608 42.7793 112.559 42.7922C112.51 42.8051 112.641 42.7922 112.639 42.7922H112.53C112.485 42.7896 112.439 42.7896 112.394 42.7922C112.479 42.7922 112.528 42.8257 112.417 42.7922L112.291 42.7535C112.329 42.7535 112.394 42.8154 112.291 42.7535C112.254 42.7302 112.218 42.7019 112.182 42.6812C112.262 42.7251 112.272 42.7638 112.182 42.6812L112.087 42.5832C112.069 42.5651 112.056 42.5471 112.04 42.529C112.025 42.511 112.123 42.6657 112.064 42.56C112.004 42.4542 111.963 42.4052 111.919 42.3226C111.875 42.2401 111.873 42.2272 111.849 42.1807C111.883 42.2478 111.867 42.2375 111.831 42.1265C111.758 41.904 111.701 41.6764 111.661 41.4455C111.643 41.3371 111.661 41.5719 111.661 41.3861L111.646 41.221C111.646 41.0843 111.633 40.9476 111.646 40.8108C111.658 40.6741 111.646 40.5528 111.664 40.4419C111.664 40.3748 111.677 40.3077 111.682 40.2433C111.687 40.1788 111.664 40.3593 111.682 40.2639C111.682 40.2226 111.695 40.1813 111.702 40.1401C111.748 39.8772 111.814 39.6184 111.901 39.3661C111.922 39.3042 111.947 39.2423 111.971 39.1803C111.994 39.1184 111.924 39.2655 112.004 39.1081C112.061 38.9894 112.118 38.8733 112.185 38.7624C112.218 38.7057 112.254 38.6515 112.291 38.5973C112.327 38.5431 112.43 38.4115 112.329 38.5354C112.41 38.4367 112.496 38.3428 112.587 38.2542L112.727 38.1252L112.799 38.0659C112.783 38.0787 112.688 38.1458 112.781 38.0813C112.874 38.0168 112.995 37.9472 113.106 37.8878L113.193 37.8466C113.175 37.8466 113.064 37.8956 113.173 37.8466C113.235 37.8259 113.297 37.8027 113.361 37.7846C113.426 37.7666 113.475 37.7563 113.531 37.7408L113.632 37.7227C113.709 37.7047 113.513 37.7227 113.632 37.7227C113.778 37.7124 113.925 37.7124 114.071 37.7227C114.14 37.7227 114.207 37.7227 114.274 37.7382C114.38 37.7382 114.179 37.7227 114.274 37.7382L114.429 37.764C114.594 37.8057 114.768 37.7823 114.915 37.6987C115.063 37.615 115.173 37.4776 115.221 37.3151C115.266 37.1502 115.244 36.9745 115.16 36.8258C115.076 36.6771 114.937 36.5675 114.772 36.5205H114.785Z" fill="#FF9D33"/>
<path d="M215.052 53.901C214.584 55.2548 214.584 56.7266 215.052 58.0804C215.306 58.9603 215.804 59.7502 216.489 60.3584C217.117 60.8961 217.825 61.3314 218.589 61.6484C219.221 61.9064 220.013 62.0715 220.627 61.6793C221.378 61.1995 221.419 60.0824 221.176 59.3136C221.073 59.0135 220.874 58.7553 220.611 58.5784C220.347 58.4014 220.033 58.3154 219.716 58.3332C218.225 58.3332 216.809 59.5148 215.965 60.6551C215.373 61.4332 215.031 62.3721 214.982 63.3485C214.936 64.5688 215.462 65.6704 216.205 66.6069C216.326 66.7274 216.49 66.7951 216.66 66.7951C216.831 66.7951 216.995 66.7274 217.116 66.6069C217.234 66.4847 217.3 66.3214 217.3 66.1515C217.3 65.9816 217.234 65.8183 217.116 65.6962C216.873 65.3849 216.67 65.0442 216.512 64.6823C216.438 64.4982 216.379 64.3084 216.337 64.1147C216.296 63.9694 216.275 63.8193 216.275 63.6684C216.266 63.4886 216.27 63.3084 216.288 63.1292C216.288 62.9822 216.288 63.1292 216.308 62.9951C216.326 62.9048 216.344 62.8145 216.368 62.7371C216.411 62.5695 216.466 62.4049 216.53 62.2443C216.569 62.1463 216.494 62.3243 216.53 62.2288C216.546 62.1927 216.564 62.1566 216.582 62.1179C216.62 62.0379 216.664 61.9554 216.708 61.8754C216.791 61.7261 216.883 61.5814 216.982 61.442C217.06 61.3295 217.146 61.2226 217.24 61.1221C217.461 60.8729 217.701 60.6417 217.959 60.4307C218.057 60.3533 217.985 60.4126 217.959 60.4307L218.05 60.3636C218.117 60.3146 218.186 60.2656 218.253 60.2217C218.38 60.1366 218.511 60.0592 218.643 59.9869L218.826 59.8915L218.973 59.8244L219.095 59.778L219.288 59.716L219.456 59.6748C219.481 59.6748 219.685 59.6387 219.569 59.6516C219.453 59.6645 219.631 59.6516 219.654 59.6516C219.678 59.6516 219.765 59.6516 219.814 59.6516C219.863 59.6516 219.675 59.6051 219.814 59.6516C219.858 59.6687 219.903 59.6816 219.948 59.6902C219.948 59.6902 219.814 59.6129 219.928 59.6902C220.041 59.7676 219.817 59.5793 219.928 59.6902C220.039 59.8012 219.853 59.5716 219.928 59.6902C220.003 59.8089 219.928 59.6903 219.928 59.6774C219.946 59.8115 219.99 59.9482 219.995 60.0256C220 60.1219 220 60.2183 219.995 60.3146C219.995 60.3533 219.995 60.392 219.995 60.4307C219.995 60.5313 220.018 60.3249 219.995 60.4152C219.972 60.5055 219.964 60.539 219.948 60.5984C219.933 60.6577 219.948 60.5132 219.964 60.5622C219.952 60.5943 219.935 60.624 219.912 60.65C220.119 60.4565 219.799 60.7351 219.93 60.6293C220.062 60.5235 219.781 60.7016 219.93 60.6293C220.08 60.5571 219.874 60.6293 219.848 60.65C219.822 60.6706 219.734 60.6654 219.848 60.65C219.961 60.6345 219.848 60.65 219.812 60.65C219.776 60.65 219.683 60.65 219.618 60.65C219.554 60.65 219.745 60.6732 219.654 60.65L219.561 60.6319C219.422 60.6002 219.284 60.5606 219.149 60.5132C219.107 60.5003 218.922 60.4255 218.971 60.4462L218.818 60.3765C218.671 60.3043 218.527 60.2294 218.385 60.1469C218.104 59.9861 217.832 59.8086 217.572 59.6154C217.43 59.5122 217.637 59.667 217.554 59.6154L217.454 59.5329C217.389 59.4813 217.327 59.4271 217.265 59.3729C217.163 59.2836 217.066 59.1889 216.974 59.0891L216.868 58.9653C217.031 59.1459 216.822 58.8802 216.791 58.8312C216.635 58.5766 216.502 58.309 216.393 58.0314C215.917 56.8373 215.89 55.5106 216.319 54.2983C216.364 54.1334 216.342 53.9572 216.258 53.8085C216.173 53.6597 216.033 53.5505 215.868 53.505C215.703 53.4595 215.527 53.4814 215.378 53.5658C215.23 53.6503 215.121 53.7903 215.075 53.9552L215.052 53.901Z" fill="#FF9D33"/>
<path d="M85.4864 65.8045C86.2957 65.8045 86.9517 65.1485 86.9517 64.3392C86.9517 63.5299 86.2957 62.8738 85.4864 62.8738C84.6771 62.8738 84.021 63.5299 84.021 64.3392C84.021 65.1485 84.6771 65.8045 85.4864 65.8045Z" stroke="#9FA3BF" stroke-width="0.257986" stroke-miterlimit="10"/>
<path d="M213.718 88.6156C214.258 88.6156 214.696 88.1779 214.696 87.6379C214.696 87.0979 214.258 86.6601 213.718 86.6601C213.178 86.6601 212.741 87.0979 212.741 87.6379C212.741 88.1779 213.178 88.6156 213.718 88.6156Z" stroke="#9FA3BF" stroke-width="0.257986" stroke-miterlimit="10"/>
<path d="M198.239 43.9712C198.689 43.9712 199.054 43.6062 199.054 43.1559C199.054 42.7057 198.689 42.3407 198.239 42.3407C197.789 42.3407 197.424 42.7057 197.424 43.1559C197.424 43.6062 197.789 43.9712 198.239 43.9712Z" stroke="#9FA3BF" stroke-width="0.257986" stroke-miterlimit="10"/>
<path d="M176.078 25.0711C177.068 25.0711 177.871 24.2683 177.871 23.2781C177.871 22.2878 177.068 21.4851 176.078 21.4851C175.087 21.4851 174.285 22.2878 174.285 23.2781C174.285 24.2683 175.087 25.0711 176.078 25.0711Z" stroke="#9FA3BF" stroke-width="0.257986" stroke-miterlimit="10"/>
<path d="M137.754 175.441C141.174 175.441 143.946 172.669 143.946 169.249C143.946 165.83 141.174 163.058 137.754 163.058C134.335 163.058 131.562 165.83 131.562 169.249C131.562 172.669 134.335 175.441 137.754 175.441Z" stroke="#9FA3BF" stroke-width="0.257986" stroke-miterlimit="10"/>
<path d="M206.059 149.229C207.59 149.229 208.83 147.989 208.83 146.459C208.83 144.928 207.59 143.688 206.059 143.688C204.529 143.688 203.289 144.928 203.289 146.459C203.289 147.989 204.529 149.229 206.059 149.229Z" stroke="#9FA3BF" stroke-width="0.257986" stroke-miterlimit="10"/>
<path d="M66.7461 145.318C67.8261 145.318 68.7016 144.443 68.7016 143.363C68.7016 142.283 67.8261 141.407 66.7461 141.407C65.6661 141.407 64.7905 142.283 64.7905 143.363C64.7905 144.443 65.6661 145.318 66.7461 145.318Z" stroke="#9FA3BF" stroke-width="0.257986" stroke-miterlimit="10"/>
</svg>
