<svg width="46" height="44" viewBox="0 0 46 44" fill="none" xmlns="http://www.w3.org/2000/svg">
<rect x="19" y="17" width="14" height="14" rx="2" fill="#818BE9"/>
<rect y="7" width="8" height="8" rx="2" fill="#E9A681"/>
<path d="M44.3091 16C45.2429 16 46.0092 15.2409 45.9107 14.3122C45.7112 12.4315 45.1794 10.5965 44.3355 8.89404C43.2406 6.68525 41.6501 4.75934 39.6882 3.2666C37.7262 1.77386 35.4459 0.754673 33.0251 0.288574C31.1592 -0.0706813 29.2488 -0.0938649 27.383 0.215464C26.4617 0.368207 25.9345 1.30922 26.1836 2.20926C26.4326 3.1093 27.3643 3.6249 28.2895 3.49831C29.6481 3.31243 31.0318 3.34874 32.3857 3.60942C34.2948 3.97701 36.0932 4.78077 37.6404 5.958C39.1877 7.13522 40.442 8.65407 41.3054 10.396C41.9178 11.6313 42.3218 12.9552 42.505 14.3141C42.6298 15.2396 43.3752 16 44.3091 16Z" fill="url(#paint0_linear_1_255)"/>
<circle cx="8" cy="41" r="3" fill="#EF6EE2"/>
<defs>
<linearGradient id="paint0_linear_1_255" x1="30" y1="0" x2="40.3529" y2="24" gradientUnits="userSpaceOnUse">
<stop stop-color="#818BE9"/>
<stop offset="1" stop-color="#EF6EE2"/>
</linearGradient>
</defs>
</svg>
