<svg width="24" height="24" viewBox="0 0 24 24" fill="none" xmlns="http://www.w3.org/2000/svg">
<path d="M22.5 12.9217C22.3165 14.9076 21.5712 16.8001 20.3513 18.3779C19.1314 19.9557 17.4874 21.1534 15.6117 21.831C13.7359 22.5085 11.706 22.6378 9.75943 22.2038C7.81286 21.7697 6.03017 20.7903 4.61994 19.3801C3.20971 17.9698 2.23027 16.1871 1.79623 14.2406C1.3622 12.294 1.49151 10.2641 2.16904 8.38835C2.84658 6.51259 4.04431 4.86859 5.62209 3.64871C7.19987 2.42883 9.09244 1.68352 11.0783 1.5C9.91566 3.07298 9.35616 5.01102 9.50163 6.96165C9.64709 8.91228 10.4878 10.7459 11.871 12.129C13.2541 13.5122 15.0877 14.3529 17.0384 14.4984C18.989 14.6438 20.927 14.0844 22.5 12.9217V12.9217Z" stroke="url(#paint0_linear_12_1041)" stroke-width="2" stroke-linecap="round" stroke-linejoin="round"/>
<defs>
<linearGradient id="paint0_linear_12_1041" x1="12.0223" y1="1.5" x2="12.0223" y2="22.4555" gradientUnits="userSpaceOnUse">
<stop stop-color="#818BE9"/>
<stop offset="1" stop-color="#AF93FF"/>
</linearGradient>
</defs>
</svg>
